<svg version="1.2" xmlns="http://www.w3.org/2000/svg" viewBox="0 0 228 224" width="228" height="224"><defs><linearGradient id="P" gradientUnits="userSpaceOnUse"/><linearGradient id="g1" x1="13.5" y1="89.4" x2="216.7" y2="89.4" href="#P"><stop stop-color="#140000"/><stop offset="1" stop-color="#260000"/></linearGradient><linearGradient id="g2" x1="245.7" y1="65.8" x2="168.6" y2="230.5" href="#P"><stop stop-color="#ff0000"/><stop offset="1" stop-color="#9e0000"/></linearGradient><linearGradient id="g3" x1="218.8" y1="82.4" x2="153.4" y2="201" href="#P"><stop stop-color="#ffffff"/><stop offset="1" stop-color="#a3a3a3"/></linearGradient><linearGradient id="g4" x1="183.2" y1="97.7" x2="135.7" y2="171.6" href="#P"><stop stop-color="#007dff"/><stop offset="1" stop-color="#0025b5"/></linearGradient><linearGradient id="g5" x1="157.6" y1="100.3" x2="128.1" y2="146.3" href="#P"><stop stop-color="#ffffff"/><stop offset="1" stop-color="#a3a3a3"/></linearGradient><linearGradient id="g6" x1="136.7" y1="102.5" x2="121.9" y2="125.6" href="#P"><stop stop-color="#ff0000"/><stop offset="1" stop-color="#9e0000"/></linearGradient><linearGradient id="g7" x1="223.4" y1="117.9" x2="169.4" y2="262.4" href="#P"><stop stop-color="#ffffff"/><stop offset="1" stop-color="#e6dada"/></linearGradient><linearGradient id="g8" x1="238.2" y1="19.8" x2="200.3" y2="292.3" href="#P"><stop stop-color="#ffffff"/><stop offset="1" stop-color="#a88f8f"/></linearGradient><linearGradient id="g9" x1="227.6" y1="33.3" x2="203.4" y2="160" href="#P"><stop stop-color="#ab7676"/><stop offset="1"/></linearGradient><clipPath clipPathUnits="userSpaceOnUse" id="cp1"><path d="m117.81 103.73q-22.17 8.08-44.33 16.15q-24.29 8.84-48.58 17.69c-0.24 0.09-0.56-0.11-0.85-0.49c-0.32-0.42-0.54-0.93-0.67-1.44q-0.17-0.68-0.08-1.14q0.07-0.38 0.31-0.48q24.29-8.85 48.57-17.69q22.17-8.09 44.35-16.11c0.4 0.05 0.91 0.67 1.22 1.52c0.32 0.86 0.32 1.66 0.04 1.95q0.01 0.02 0.02 0.04z" /></clipPath><linearGradient id="g10" x1="23.3" y1="134.4" x2="73.7" y2="118.8" href="#P"><stop stop-color="#361408"/><stop offset="1" stop-color="#cf643e"/></linearGradient><radialGradient id="g11" cx="43.6" cy="126.7" r="1.1" href="#P"><stop stop-color="#2e2117"/><stop offset="1" stop-color="#ffffff"/></radialGradient><radialGradient id="g12" cx="44.9" cy="130.3" r="1.1" href="#P"><stop stop-color="#2e2117"/><stop offset="1" stop-color="#ffffff"/></radialGradient><clipPath clipPathUnits="userSpaceOnUse" id="cp2"><path d="m44.34 130.49c4.95-1.8 11.36-4.14 19.66-7.16q-0.24 0.69-0.58 1.37q-0.5 0.98-1.19 1.92q-0.44 0.6-0.95 1.19c-2.28 2.61-5.55 4.99-9.12 7.07q-9.97 5.8-22.35 9.32c0.51-0.56 0.62-1.4 0.51-2.33c-0.17-1.45-0.87-3.11-1.42-4.22q-0.38-0.78-0.69-1.28q2.36-0.86 16.13-5.88z" /></clipPath><linearGradient id="g13" x1="28.2" y1="136.4" x2="50.4" y2="133.7" href="#P"><stop stop-color="#00156a"/><stop offset="1" stop-color="#7792ff"/></linearGradient><linearGradient id="g14" x1="69.8" y1="118.8" x2="72.3" y2="125.5" href="#P"><stop offset=".3" stop-color="#1e2a5c"/><stop offset="1" stop-color="#ffffff"/></linearGradient><radialGradient id="g15" cx="39" cy="138.4" r="2.2" href="#P"><stop stop-color="#1e2a5c"/><stop offset="1"/></radialGradient><clipPath clipPathUnits="userSpaceOnUse" id="cp3"><path d="m26.92 132.81q-0.09-0.58-0.3-1.42c-0.3-1.2-0.82-2.93-1.62-4.15c-0.52-0.78-1.14-1.36-1.9-1.45q11.74-5.27 23.11-7.24c4.08-0.7 8.11-0.98 11.53-0.45q0.77 0.12 1.5 0.3q1.13 0.28 2.14 0.71q0.7 0.29 1.33 0.67c-8.3 3.02-14.72 5.36-19.66 7.16q-13.78 5.02-16.13 5.87z" /></clipPath><linearGradient id="g16" x1="27.1" y1="132.8" x2="45.5" y2="120.8" href="#P"><stop stop-color="#00156a"/><stop offset="1" stop-color="#7792ff"/></linearGradient><linearGradient id="g17" x1="70.1" y1="119.5" x2="67.7" y2="112.8" href="#P"><stop offset=".3" stop-color="#1e2a5c"/><stop offset="1" stop-color="#ffffff"/></linearGradient><radialGradient id="g18" cx="33.9" cy="124.3" r="2.2" href="#P"><stop stop-color="#1e2a5c"/><stop offset="1"/></radialGradient></defs><style>.s0{fill:url(#g1)}.s1{fill:url(#g2)}.s2{fill:url(#g3)}.s3{fill:url(#g4)}.s4{fill:url(#g5)}.s5{fill:url(#g6)}.s6{mix-blend-mode: multiply;fill:url(#g7)}.s7{mix-blend-mode: screen;fill:#965a5a}.s8{mix-blend-mode: multiply;fill:url(#g8)}.s9{mix-blend-mode: screen;fill:url(#g9)}.s10{opacity: 0;mix-blend-mode: multiply;fill:#ffffff}.s11{opacity: 0;mix-blend-mode: multiply;fill:#fefefe}.s12{opacity: 0;mix-blend-mode: multiply;fill:#fdfdfd}.s13{opacity: 0;mix-blend-mode: multiply;fill:#fcfcfc}.s14{opacity: 0;mix-blend-mode: multiply;fill:#fcfbfb}.s15{opacity: 0;mix-blend-mode: multiply;fill:#fbfafa}.s16{opacity: 0;mix-blend-mode: multiply;fill:#faf9f9}.s17{opacity: 0;mix-blend-mode: multiply;fill:#f9f8f8}.s18{opacity: 0;mix-blend-mode: multiply;fill:#f8f7f7}.s19{opacity: .1;mix-blend-mode: multiply;fill:#f7f6f6}.s20{opacity: .1;mix-blend-mode: multiply;fill:#f7f5f5}.s21{opacity: .1;mix-blend-mode: multiply;fill:#f6f4f4}.s22{opacity: .1;mix-blend-mode: multiply;fill:#f5f3f3}.s23{opacity: .1;mix-blend-mode: multiply;fill:#f4f2f2}.s24{opacity: .1;mix-blend-mode: multiply;fill:#f3f1f1}.s25{opacity: .1;mix-blend-mode: multiply;fill:#f2f0f0}.s26{opacity: .1;mix-blend-mode: multiply;fill:#f2efef}.s27{opacity: .1;mix-blend-mode: multiply;fill:#f1eeee}.s28{opacity: .1;mix-blend-mode: multiply;fill:#f0eded}.s29{opacity: .1;mix-blend-mode: multiply;fill:#efecec}.s30{opacity: .1;mix-blend-mode: multiply;fill:#eeebeb}.s31{opacity: .1;mix-blend-mode: multiply;fill:#edeaea}.s32{opacity: .1;mix-blend-mode: multiply;fill:#ece9e9}.s33{opacity: .1;mix-blend-mode: multiply;fill:#ece7e7}.s34{opacity: .1;mix-blend-mode: multiply;fill:#ebe6e6}.s35{opacity: .1;mix-blend-mode: multiply;fill:#eae5e5}.s36{opacity: .1;mix-blend-mode: multiply;fill:#e9e4e4}.s37{opacity: .2;mix-blend-mode: multiply;fill:#e8e3e3}.s38{opacity: .2;mix-blend-mode: multiply;fill:#e7e2e2}.s39{opacity: .2;mix-blend-mode: multiply;fill:#e7e1e1}.s40{opacity: .2;mix-blend-mode: multiply;fill:#e6e0e0}.s41{opacity: .2;mix-blend-mode: multiply;fill:#e5dfdf}.s42{opacity: .2;mix-blend-mode: multiply;fill:#e4dede}.s43{opacity: .2;mix-blend-mode: multiply;fill:#e3dddd}.s44{opacity: .2;mix-blend-mode: multiply;fill:#e2dcdc}.s45{opacity: .2;mix-blend-mode: multiply;fill:#e2dbdb}.s46{opacity: .2;mix-blend-mode: multiply;fill:#e1dada}.s47{opacity: .2;mix-blend-mode: multiply;fill:#e0d9d9}.s48{opacity: .2;mix-blend-mode: multiply;fill:#dfd8d8}.s49{opacity: .2;mix-blend-mode: multiply;fill:#ded7d7}.s50{opacity: .2;mix-blend-mode: multiply;fill:#ddd6d6}.s51{opacity: .2;mix-blend-mode: multiply;fill:#dcd5d5}.s52{opacity: .2;mix-blend-mode: multiply;fill:#dcd4d4}.s53{opacity: .2;mix-blend-mode: multiply;fill:#dbd3d3}.s54{opacity: .2;mix-blend-mode: multiply;fill:#dad2d2}.s55{opacity: .3;mix-blend-mode: multiply;fill:#d9d1d1}.s56{opacity: .3;mix-blend-mode: multiply;fill:#d8d0d0}.s57{opacity: .3;mix-blend-mode: multiply;fill:#d7cfcf}.s58{opacity: .3;mix-blend-mode: multiply;fill:#d7cece}.s59{opacity: .3;mix-blend-mode: multiply;fill:#d6cdcd}.s60{opacity: .3;mix-blend-mode: multiply;fill:#d5cccc}.s61{opacity: .3;mix-blend-mode: multiply;fill:#d4cbcb}.s62{opacity: .3;mix-blend-mode: multiply;fill:#d3caca}.s63{opacity: .3;mix-blend-mode: multiply;fill:#d2c9c9}.s64{opacity: .3;mix-blend-mode: multiply;fill:#d1c8c8}.s65{opacity: .3;mix-blend-mode: multiply;fill:#d1c7c7}.s66{opacity: .3;mix-blend-mode: multiply;fill:#d0c6c6}.s67{opacity: .3;mix-blend-mode: multiply;fill:#cfc5c5}.s68{opacity: .3;mix-blend-mode: multiply;fill:#cec4c4}.s69{opacity: .3;mix-blend-mode: multiply;fill:#cdc3c3}.s70{opacity: .3;mix-blend-mode: multiply;fill:#ccc2c2}.s71{opacity: .3;mix-blend-mode: multiply;fill:#ccc1c1}.s72{opacity: .3;mix-blend-mode: multiply;fill:#cbc0c0}.s73{opacity: .4;mix-blend-mode: multiply;fill:#cabfbf}.s74{opacity: .4;mix-blend-mode: multiply;fill:#c9bebe}.s75{opacity: .4;mix-blend-mode: multiply;fill:#c8bdbd}.s76{opacity: .4;mix-blend-mode: multiply;fill:#c7bcbc}.s77{opacity: .4;mix-blend-mode: multiply;fill:#c7baba}.s78{opacity: .4;mix-blend-mode: multiply;fill:#c6b9b9}.s79{opacity: .4;mix-blend-mode: multiply;fill:#c5b8b8}.s80{opacity: .4;mix-blend-mode: multiply;fill:#c4b7b7}.s81{opacity: .4;mix-blend-mode: multiply;fill:#c3b6b6}.s82{opacity: .4;mix-blend-mode: multiply;fill:#c2b5b5}.s83{opacity: .4;mix-blend-mode: multiply;fill:#c1b4b4}.s84{opacity: .4;mix-blend-mode: multiply;fill:#c1b3b3}.s85{opacity: .4;mix-blend-mode: multiply;fill:#c0b2b2}.s86{opacity: .4;mix-blend-mode: multiply;fill:#bfb1b1}.s87{opacity: .4;mix-blend-mode: multiply;fill:#beb0b0}.s88{opacity: .4;mix-blend-mode: multiply;fill:#bdafaf}.s89{opacity: .4;mix-blend-mode: multiply;fill:#bcaeae}.s90{opacity: .5;mix-blend-mode: multiply;fill:#bcadad}.s91{opacity: .5;mix-blend-mode: multiply;fill:#bbacac}.s92{opacity: .5;mix-blend-mode: multiply;fill:#baabab}.s93{opacity: .5;mix-blend-mode: multiply;fill:#b9aaaa}.s94{opacity: .5;mix-blend-mode: multiply;fill:#b8a9a9}.s95{opacity: .5;mix-blend-mode: multiply;fill:#b7a8a8}.s96{opacity: .5;mix-blend-mode: multiply;fill:#b7a7a7}.s97{opacity: .5;mix-blend-mode: multiply;fill:#b6a6a6}.s98{opacity: .5;mix-blend-mode: multiply;fill:#b5a5a5}.s99{opacity: .5;mix-blend-mode: multiply;fill:#b4a4a4}.s100{opacity: .5;mix-blend-mode: multiply;fill:#b3a3a3}.s101{opacity: .5;mix-blend-mode: multiply;fill:#b2a2a2}.s102{opacity: .5;mix-blend-mode: multiply;fill:#b1a1a1}.s103{opacity: .5;mix-blend-mode: multiply;fill:#b1a0a0}.s104{opacity: .5;mix-blend-mode: multiply;fill:#b09f9f}.s105{opacity: .5;mix-blend-mode: multiply;fill:#af9e9e}.s106{opacity: .5;mix-blend-mode: multiply;fill:#ae9d9d}.s107{opacity: .5;mix-blend-mode: multiply;fill:#ad9c9c}.s108{opacity: .5;mix-blend-mode: multiply;fill:#ac9b9b}.s109{opacity: .6;mix-blend-mode: multiply;fill:#ac9a9a}.s110{opacity: .6;mix-blend-mode: multiply;fill:#ab9999}.s111{opacity: .6;mix-blend-mode: multiply;fill:#aa9898}.s112{opacity: .6;mix-blend-mode: multiply;fill:#a99797}.s113{opacity: .6;mix-blend-mode: multiply;fill:#a89696}.s114{opacity: .6;mix-blend-mode: multiply;fill:#a79595}.s115{opacity: .6;mix-blend-mode: multiply;fill:#a79494}.s116{opacity: .6;mix-blend-mode: multiply;fill:#a69393}.s117{opacity: .6;mix-blend-mode: multiply;fill:#a59292}.s118{opacity: .6;mix-blend-mode: multiply;fill:#a49191}.s119{opacity: .6;mix-blend-mode: multiply;fill:#a39090}.s120{opacity: .6;mix-blend-mode: multiply;fill:#a28f8f}.s121{opacity: .6;mix-blend-mode: multiply;fill:#a18e8e}.s122{opacity: .6;mix-blend-mode: multiply;fill:#a18c8c}.s123{opacity: .6;mix-blend-mode: multiply;fill:#a08b8b}.s124{opacity: .6;mix-blend-mode: multiply;fill:#9f8a8a}.s125{opacity: .6;mix-blend-mode: multiply;fill:#9e8989}.s126{opacity: .7;mix-blend-mode: multiply;fill:#9d8888}.s127{opacity: .7;mix-blend-mode: multiply;fill:#9c8787}.s128{opacity: .7;mix-blend-mode: multiply;fill:#9c8686}.s129{opacity: .7;mix-blend-mode: multiply;fill:#9b8585}.s130{opacity: .7;mix-blend-mode: multiply;fill:#9a8484}.s131{opacity: .7;mix-blend-mode: multiply;fill:#998383}.s132{opacity: .7;mix-blend-mode: multiply;fill:#988282}.s133{opacity: .7;mix-blend-mode: multiply;fill:#978181}.s134{opacity: .7;mix-blend-mode: multiply;fill:#978080}.s135{opacity: .7;mix-blend-mode: multiply;fill:#967f7f}.s136{opacity: .7;mix-blend-mode: multiply;fill:#957e7e}.s137{opacity: .7;mix-blend-mode: multiply;fill:#947d7d}.s138{opacity: .7;mix-blend-mode: multiply;fill:#937c7c}.s139{opacity: .7;mix-blend-mode: multiply;fill:#927b7b}.s140{opacity: .7;mix-blend-mode: multiply;fill:#917a7a}.s141{opacity: .7;mix-blend-mode: multiply;fill:#917979}.s142{opacity: .7;mix-blend-mode: multiply;fill:#907878}.s143{opacity: .7;mix-blend-mode: multiply;fill:#8f7777}.s144{opacity: .8;mix-blend-mode: multiply;fill:#8e7676}.s145{opacity: .8;mix-blend-mode: multiply;fill:#8d7575}.s146{opacity: .8;mix-blend-mode: multiply;fill:#8c7474}.s147{opacity: .8;mix-blend-mode: multiply;fill:#8c7373}.s148{opacity: .8;mix-blend-mode: multiply;fill:#8b7272}.s149{opacity: .8;mix-blend-mode: multiply;fill:#8a7171}.s150{opacity: .8;mix-blend-mode: multiply;fill:#897070}.s151{opacity: .8;mix-blend-mode: multiply;fill:#886f6f}.s152{opacity: .8;mix-blend-mode: multiply;fill:#876e6e}.s153{opacity: .8;mix-blend-mode: multiply;fill:#866d6d}.s154{opacity: .8;mix-blend-mode: multiply;fill:#866c6c}.s155{opacity: .8;mix-blend-mode: multiply;fill:#856b6b}.s156{opacity: .8;mix-blend-mode: multiply;fill:#846a6a}.s157{opacity: .8;mix-blend-mode: multiply;fill:#836969}.s158{opacity: .8;mix-blend-mode: multiply;fill:#826868}.s159{opacity: .8;mix-blend-mode: multiply;fill:#816767}.s160{opacity: .8;mix-blend-mode: multiply;fill:#816666}.s161{opacity: .8;mix-blend-mode: multiply;fill:#806565}.s162{opacity: .9;mix-blend-mode: multiply;fill:#7f6464}.s163{opacity: .9;mix-blend-mode: multiply;fill:#7e6363}.s164{opacity: .9;mix-blend-mode: multiply;fill:#7d6262}.s165{opacity: .9;mix-blend-mode: multiply;fill:#7c6161}.s166{opacity: .9;mix-blend-mode: multiply;fill:#7c5f5f}.s167{opacity: .9;mix-blend-mode: multiply;fill:#7b5e5e}.s168{opacity: .9;mix-blend-mode: multiply;fill:#7a5d5d}.s169{opacity: .9;mix-blend-mode: multiply;fill:#795c5c}.s170{opacity: .9;mix-blend-mode: multiply;fill:#785b5b}.s171{opacity: .9;mix-blend-mode: multiply;fill:#775a5a}.s172{opacity: .9;mix-blend-mode: multiply;fill:#765959}.s173{opacity: .9;mix-blend-mode: multiply;fill:#765858}.s174{opacity: .9;mix-blend-mode: multiply;fill:#755757}.s175{opacity: .9;mix-blend-mode: multiply;fill:#745656}.s176{opacity: .9;mix-blend-mode: multiply;fill:#735555}.s177{opacity: .9;mix-blend-mode: multiply;fill:#725454}.s178{opacity: .9;mix-blend-mode: multiply;fill:#715353}.s179{opacity: .9;mix-blend-mode: multiply;fill:#715252}.s180{mix-blend-mode: multiply;fill:#705151}.s181{mix-blend-mode: multiply;fill:#6f5050}.s182{mix-blend-mode: multiply;fill:#6e4f4f}.s183{mix-blend-mode: multiply;fill:#6d4e4e}.s184{mix-blend-mode: multiply;fill:#6c4d4d}.s185{mix-blend-mode: multiply;fill:#6c4c4c}.s186{mix-blend-mode: multiply;fill:#6b4b4b}.s187{mix-blend-mode: multiply;fill:#6a4a4a}.s188{mix-blend-mode: multiply;fill:#694949}.s189{fill:url(#g10)}.s190{mix-blend-mode: multiply;fill:url(#g11)}.s191{mix-blend-mode: multiply;fill:url(#g12)}.s192{fill:url(#g13)}.s193{mix-blend-mode: multiply;fill:url(#g14)}.s194{mix-blend-mode: multiply;fill:#454f77}.s195{mix-blend-mode: multiply;fill:#b1c1ff}.s196{mix-blend-mode: multiply;fill:#3550bf}.s197{mix-blend-mode: screen;fill:url(#g15)}.s198{fill:url(#g16)}.s199{mix-blend-mode: multiply;fill:url(#g17)}.s200{mix-blend-mode: screen;fill:url(#g18)}</style><path class="s0" d="m216.7 117.1l-0.6 4.4q0 0.4-0.1 0.8q-1.4 10.2-4.8 20.1c-2.4 7-5.7 13.8-9.7 20.3c-5 8-11.2 15.4-18.5 22c-42.3 37.9-107.4 34.5-145.6-7.5c-21-23.1-29.4-53-25.8-81.5l0.5-4.4c-3.6 28.5 4.9 58.4 25.8 81.5c38.2 42 103.4 45.4 145.6 7.5c7.4-6.6 13.6-14 18.5-22c4.1-6.5 7.3-13.3 9.8-20.3q3.5-9.9 4.8-20.1q0-0.4 0.1-0.8z" /><path class="s1" d="m214 129.2c-14 55.1-70.1 88.5-125.3 74.5c-55.1-14.1-88.5-70.2-74.5-125.3c14-55.2 70.1-88.6 125.3-74.5c55.2 14 88.5 70.1 74.5 125.3z" /><path class="s2" d="m191.1 123.3c-10.8 42.5-54 68.2-96.5 57.4c-42.5-10.8-68.2-54-57.4-96.5c10.8-42.5 54-68.2 96.5-57.4c42.5 10.8 68.2 54 57.4 96.5z" /><path class="s3" d="m164.6 116.6c-7.1 27.9-35.4 44.8-63.3 37.7c-27.9-7.1-44.8-35.5-37.7-63.4c7.1-27.9 35.5-44.7 63.4-37.6c27.9 7 44.7 35.4 37.6 63.3z" /><path class="s4" d="m145.5 111.7c-4.4 17.4-22 27.8-39.4 23.4c-17.3-4.4-27.8-22-23.3-39.3c4.4-17.3 22-27.8 39.3-23.4c17.3 4.4 27.8 22 23.4 39.3z" /><path class="s5" d="m129.9 107.8c-2.3 8.7-11.1 13.9-19.8 11.7c-8.7-2.2-13.9-11-11.7-19.7c2.2-8.7 11-14 19.7-11.8c8.7 2.2 14 11.1 11.8 19.8z" /><path class="s6" d="m215.6 122c-7 38.6-35.8 71.5-76.3 81.7c-55.2 13.9-111.2-19.6-125.1-74.8c-5.7-22.6-3.4-45.4 5-65.4c-2.5 14-2.2 28.7 1.5 43.4c13.9 55.2 69.9 88.7 125.1 74.8c32.6-8.2 57.6-31 69.8-59.7z" /><path class="s7" d="m214.1 78.6c6.7 26.6 2.4 53.3-10.1 75.5c10.7-21.3 14.1-46.4 7.9-71.3c-13.9-55.2-70-88.7-125.2-74.8c-28.6 7.2-51.4 25.8-64.7 49.6c13-25.9 36.7-46.2 67-53.8c55.2-13.9 111.2 19.6 125.1 74.8z" /><path class="s8" d="m217.1 100.5c1.9 56.9-42.8 104.5-99.7 106.3c-56.9 1.8-104.5-42.9-106.3-99.7c-1.8-56.9 42.8-104.5 99.7-106.4c56.9-1.8 104.5 42.9 106.3 99.8z" /><path class="s9" d="m13.4 125.7c-3.3-15.1-3.3-31.3 0.8-47.3c14-55.2 70.1-88.6 125.3-74.5c55.2 14 88.5 70.1 74.5 125.3c-8.1-36.9-36.2-68-75.3-78c-55.2-14-111.2 19.4-125.3 74.5z" /><path class="s10" d="m105.5 145.7c-16.5 19.3-45.2 42.1-52.8 35.6c-7.5-6.4 6.9-41.4 23.4-60.7c16.5-19.3 38.1-32 45.6-25.5c7.6 6.5 0.3 31.3-16.2 50.6z" /><path class="s11" d="m105.6 145.5c-16.4 19.2-45 41.8-52.5 35.4c-7.6-6.4 6.8-41.2 23.2-60.4c16.4-19.2 37.9-31.8 45.4-25.4c7.5 6.5 0.3 31.2-16.1 50.4z" /><path class="s12" d="m105.6 145.2c-16.3 19.1-44.7 41.7-52.2 35.3c-7.5-6.4 6.8-41 23.1-60.1c16.3-19.1 37.7-31.6 45.2-25.2c7.4 6.4 0.2 30.9-16.1 50z" /><path class="s13" d="m105.7 145c-16.3 19-44.5 41.5-52 35.1c-7.4-6.4 6.8-40.8 23-59.8c16.2-19 37.5-31.4 44.9-25.1c7.5 6.4 0.3 30.8-15.9 49.8z" /><path class="s14" d="m105.7 144.8c-16.1 18.9-44.2 41.2-51.7 34.9c-7.4-6.3 6.8-40.5 22.9-59.5c16.2-18.9 37.3-31.3 44.7-24.9c7.4 6.3 0.3 30.6-15.9 49.5z" /><path class="s15" d="m105.8 144.6c-16.1 18.8-44.1 41-51.4 34.7c-7.4-6.3 6.6-40.3 22.7-59.1c16.1-18.9 37.1-31.2 44.5-24.9c7.4 6.3 0.3 30.5-15.8 49.3z" /><path class="s16" d="m105.8 144.4c-15.9 18.7-43.8 40.8-51.1 34.5c-7.3-6.3 6.6-40.1 22.6-58.8c16-18.8 36.9-31 44.3-24.8c7.3 6.3 0.2 30.3-15.8 49.1z" /><path class="s17" d="m105.9 144.1c-15.9 18.7-43.6 40.6-50.9 34.4c-7.2-6.2 6.6-39.9 22.5-58.5c15.9-18.6 36.8-30.8 44-24.6c7.3 6.2 0.3 30.1-15.6 48.7z" /><path class="s18" d="m106 143.9c-15.9 18.5-43.4 40.4-50.6 34.2c-7.3-6.2 6.5-39.7 22.3-58.2c15.9-18.5 36.6-30.7 43.8-24.5c7.3 6.2 0.3 30-15.5 48.5z" /><path class="s19" d="m106 143.7c-15.7 18.4-43.1 40.1-50.3 34c-7.2-6.2 6.5-39.5 22.3-57.9c15.7-18.4 36.3-30.5 43.5-24.3c7.2 6.1 0.3 29.8-15.5 48.2z" /><path class="s20" d="m106.1 143.5c-15.7 18.3-42.9 39.9-50.1 33.8c-7.1-6.1 6.5-39.3 22.2-57.6c15.6-18.3 36.1-30.3 43.3-24.2c7.1 6.1 0.2 29.7-15.4 48z" /><path class="s21" d="m106.1 143.3c-15.5 18.2-42.6 39.7-49.7 33.6c-7.2-6.1 6.4-39 22-57.3c15.6-18.2 35.9-30.2 43-24.1c7.2 6.1 0.3 29.5-15.3 47.8z" /><path class="s22" d="m106.2 143c-15.5 18.2-42.4 39.5-49.5 33.5c-7.1-6.1 6.4-38.8 21.9-57c15.5-18.1 35.7-30 42.8-23.9c7.1 6 0.3 29.3-15.2 47.4z" /><path class="s23" d="m106.2 142.8c-15.4 18.1-42.1 39.3-49.2 33.3c-7-6.1 6.4-38.6 21.8-56.7c15.4-18 35.5-29.8 42.6-23.8c7 6 0.2 29.2-15.2 47.2z" /><path class="s24" d="m106.3 142.6c-15.3 17.9-41.9 39.1-49 33.1c-7-6 6.4-38.4 21.7-56.3c15.3-18 35.4-29.7 42.4-23.7c7 5.9 0.2 29-15.1 46.9z" /><path class="s25" d="m106.4 142.4c-15.3 17.8-41.7 38.8-48.7 32.9c-7-6 6.3-38.2 21.5-56c15.3-17.9 35.2-29.6 42.1-23.6c7 5.9 0.3 28.8-14.9 46.7z" /><path class="s26" d="m106.4 142.2c-15.1 17.7-41.5 38.6-48.4 32.7c-6.9-6 6.3-38 21.4-55.7c15.2-17.8 35-29.4 41.9-23.5c7 6 0.3 28.7-14.9 46.5z" /><path class="s27" d="m106.5 141.9c-15.1 17.7-41.3 38.4-48.2 32.5c-6.9-5.8 6.3-37.7 21.3-55.3c15.1-17.7 34.8-29.2 41.7-23.3c6.9 5.9 0.2 28.5-14.8 46.1z" /><path class="s28" d="m106.5 141.7c-15 17.6-41 38.2-47.8 32.3c-6.9-5.8 6.2-37.4 21.1-55c15-17.5 34.6-29 41.5-23.2c6.8 5.9 0.2 28.4-14.8 45.9z" /><path class="s29" d="m106.6 141.5c-14.9 17.5-40.8 38-47.6 32.1c-6.8-5.8 6.1-37.2 21.1-54.7c14.9-17.4 34.3-28.9 41.1-23c6.9 5.8 0.3 28.2-14.6 45.6z" /><path class="s30" d="m106.6 141.3c-14.8 17.3-40.5 37.7-47.3 31.9c-6.7-5.8 6.1-37 21-54.4c14.8-17.3 34.1-28.7 40.9-22.9c6.8 5.8 0.3 28-14.6 45.4z" /><path class="s31" d="m106.7 141.1c-14.7 17.2-40.3 37.5-47 31.7c-6.8-5.7 6-36.8 20.8-54.1c14.7-17.2 34-28.5 40.7-22.8c6.7 5.8 0.2 27.9-14.5 45.2z" /><path class="s32" d="m106.7 140.9c-14.6 17.1-40 37.2-46.7 31.5c-6.7-5.7 6-36.6 20.7-53.8c14.6-17.1 33.8-28.4 40.5-22.6c6.7 5.7 0.2 27.7-14.5 44.9z" /><path class="s33" d="m106.8 140.6c-14.6 17.1-39.8 37.1-46.5 31.4c-6.6-5.7 6-36.4 20.6-53.4c14.6-17.1 33.6-28.3 40.3-22.6c6.6 5.7 0.2 27.6-14.4 44.6z" /><path class="s34" d="m106.9 140.4c-14.5 17-39.6 36.9-46.3 31.2c-6.6-5.6 6-36.2 20.5-53.1c14.5-17 33.4-28.1 40-22.5c6.6 5.7 0.2 27.4-14.2 44.4z" /><path class="s35" d="m106.9 140.2c-14.4 16.9-39.3 36.6-45.9 31c-6.6-5.6 5.9-35.9 20.3-52.8c14.4-16.9 33.2-27.9 39.8-22.3c6.6 5.6 0.2 27.2-14.2 44.1z" /><path class="s36" d="m107 140c-14.3 16.7-39.1 36.4-45.7 30.8c-6.5-5.6 5.9-35.7 20.2-52.5c14.3-16.8 33-27.8 39.6-22.2c6.5 5.6 0.2 27.1-14.1 43.9z" /><path class="s37" d="m107 139.8c-14.2 16.6-38.9 36.2-45.4 30.6c-6.5-5.5 5.9-35.5 20.1-52.2c14.3-16.7 32.8-27.6 39.4-22c6.5 5.5 0.2 26.9-14.1 43.6z" /><path class="s38" d="m107.1 139.5c-14.2 16.6-38.7 36-45.1 30.5c-6.5-5.5 5.8-35.3 19.9-51.9c14.2-16.6 32.7-27.4 39.1-21.9c6.5 5.5 0.2 26.8-13.9 43.3z" /><path class="s39" d="m107.1 139.3c-14 16.5-38.4 35.8-44.8 30.3c-6.4-5.5 5.8-35.1 19.8-51.6c14.1-16.5 32.5-27.2 38.9-21.8c6.4 5.5 0.2 26.6-13.9 43.1z" /><path class="s40" d="m107.2 139.1c-14 16.4-38.2 35.5-44.6 30.1c-6.4-5.5 5.8-34.9 19.8-51.3c13.9-16.3 32.2-27.1 38.6-21.6c6.4 5.4 0.2 26.4-13.8 42.8z" /><path class="s41" d="m107.3 138.9c-14 16.3-38 35.3-44.3 29.9c-6.4-5.4 5.7-34.7 19.6-50.9c13.9-16.3 32-27 38.4-21.6c6.3 5.4 0.2 26.3-13.7 42.6z" /><path class="s42" d="m107.3 138.7c-13.8 16.1-37.7 35.1-44 29.7c-6.3-5.4 5.7-34.4 19.5-50.6c13.8-16.2 31.8-26.8 38.1-21.4c6.3 5.3 0.2 26.1-13.6 42.3z" /><path class="s43" d="m107.4 138.4c-13.8 16.1-37.5 34.9-43.8 29.6c-6.3-5.4 5.6-34.2 19.4-50.3c13.7-16.1 31.6-26.7 37.9-21.3c6.3 5.4 0.2 25.9-13.5 42z" /><path class="s44" d="m107.4 138.2c-13.6 16-37.2 34.7-43.5 29.4c-6.2-5.3 5.6-34 19.3-50c13.6-16 31.5-26.5 37.7-21.2c6.2 5.4 0.2 25.8-13.5 41.8z" /><path class="s45" d="m107.5 138c-13.6 15.9-37 34.5-43.2 29.2c-6.2-5.3 5.5-33.8 19.1-49.7c13.6-15.9 31.3-26.3 37.5-21c6.2 5.3 0.1 25.6-13.4 41.5z" /><path class="s46" d="m107.5 137.8c-13.5 15.8-36.7 34.2-42.9 29c-6.1-5.3 5.5-33.6 19-49.4c13.5-15.8 31.1-26.1 37.2-20.9c6.2 5.3 0.2 25.5-13.3 41.3z" /><path class="s47" d="m107.6 137.6c-13.4 15.7-36.5 34-42.7 28.8c-6.1-5.3 5.5-33.4 18.9-49.1c13.4-15.7 30.9-26 37-20.7c6.1 5.2 0.2 25.3-13.2 41z" /><path class="s48" d="m107.6 137.3c-13.3 15.7-36.3 33.8-42.3 28.7c-6.1-5.2 5.4-33.2 18.7-48.8c13.3-15.6 30.7-25.8 36.8-20.6c6.1 5.2 0.2 25.1-13.2 40.7z" /><path class="s49" d="m107.7 137.1c-13.2 15.5-36.1 33.6-42.1 28.5c-6-5.2 5.4-32.9 18.6-48.5c13.3-15.5 30.5-25.6 36.6-20.5c6 5.2 0.1 25-13.1 40.5z" /><path class="s50" d="m107.8 136.9c-13.2 15.4-35.9 33.4-41.9 28.3c-6-5.2 5.4-32.7 18.5-48.1c13.2-15.5 30.3-25.5 36.3-20.4c6 5.1 0.2 24.8-12.9 40.2z" /><path class="s51" d="m107.8 136.7c-13.1 15.3-35.6 33.1-41.5 28c-6-5 5.3-32.4 18.4-47.7c13-15.3 30.1-25.4 36-20.3c6 5.1 0.2 24.7-12.9 40z" /><path class="s52" d="m107.9 136.5c-13 15.2-35.4 32.9-41.3 27.8c-5.9-5 5.3-32.2 18.3-47.4c12.9-15.2 29.9-25.2 35.8-20.1c5.9 5 0.2 24.4-12.8 39.7z" /><path class="s53" d="m107.9 136.2c-12.9 15.2-35.1 32.8-41 27.7c-5.9-5 5.3-32 18.2-47.1c12.9-15.1 29.7-25 35.6-20c5.8 5 0.1 24.3-12.8 39.4z" /><path class="s54" d="m108 136c-12.8 15.1-34.9 32.5-40.8 27.5c-5.8-5 5.3-31.8 18.1-46.8c12.8-15 29.5-24.9 35.3-19.9c5.9 5 0.2 24.2-12.6 39.2z" /><path class="s55" d="m108 135.8c-12.7 14.9-34.6 32.3-40.4 27.3c-5.8-4.9 5.2-31.6 17.9-46.5c12.7-14.9 29.3-24.7 35.1-19.7c5.8 4.9 0.2 24-12.6 38.9z" /><path class="s56" d="m108.1 135.6c-12.7 14.8-34.4 32-40.2 27.1c-5.8-4.9 5.1-31.3 17.8-46.2c12.7-14.8 29.1-24.5 34.9-19.6c5.8 4.9 0.1 23.9-12.5 38.7z" /><path class="s57" d="m108.2 135.4c-12.6 14.7-34.2 31.8-40 26.9c-5.7-4.9 5.1-31.1 17.7-45.9c12.6-14.7 28.9-24.3 34.7-19.4c5.7 4.8 0.1 23.6-12.4 38.4z" /><path class="s58" d="m108.2 135.2c-12.5 14.6-33.9 31.6-39.6 26.7c-5.7-4.8 5-30.9 17.5-45.6c12.5-14.6 28.8-24.2 34.4-19.3c5.7 4.8 0.2 23.5-12.3 38.2z" /><path class="s59" d="m108.3 134.9c-12.4 14.6-33.8 31.4-39.4 26.6c-5.6-4.8 5-30.7 17.4-45.2c12.4-14.6 28.6-24.1 34.2-19.3c5.7 4.9 0.2 23.4-12.2 37.9z" /><path class="s60" d="m108.3 134.7c-12.3 14.5-33.5 31.2-39.1 26.4c-5.6-4.8 5-30.5 17.3-44.9c12.4-14.5 28.4-23.9 34-19.1c5.6 4.8 0.1 23.2-12.2 37.6z" /><path class="s61" d="m108.4 134.5c-12.3 14.3-33.3 31-38.8 26.2c-5.6-4.7 4.9-30.3 17.1-44.6c12.3-14.4 28.2-23.7 33.8-19c5.5 4.8 0.1 23-12.1 37.4z" /><path class="s62" d="m108.4 134.3c-12.1 14.2-33 30.7-38.5 26c-5.5-4.7 4.9-30.1 17.1-44.3c12.1-14.3 27.9-23.6 33.4-18.8c5.6 4.7 0.2 22.8-12 37.1z" /><path class="s63" d="m108.5 134.1c-12.1 14.1-32.8 30.5-38.3 25.8c-5.5-4.7 4.9-29.8 17-44c12-14.1 27.7-23.4 33.2-18.7c5.5 4.7 0.2 22.7-11.9 36.9z" /><path class="s64" d="m108.5 133.8c-11.9 14.1-32.5 30.3-38 25.7c-5.4-4.7 4.9-29.6 16.9-43.7c12-14 27.5-23.2 33-18.6c5.4 4.7 0.1 22.6-11.9 36.6z" /><path class="s65" d="m108.6 133.6c-11.9 14-32.3 30.1-37.7 25.5c-5.4-4.6 4.8-29.4 16.7-43.4c11.9-13.9 27.4-23 32.8-18.4c5.4 4.6 0.1 22.4-11.8 36.3z" /><path class="s66" d="m108.7 133.4c-11.9 13.9-32.1 29.9-37.5 25.3c-5.4-4.6 4.8-29.2 16.6-43.1c11.8-13.8 27.2-22.9 32.6-18.3c5.3 4.6 0.1 22.2-11.7 36.1z" /><path class="s67" d="m108.7 133.2c-11.7 13.7-31.8 29.6-37.2 25.1c-5.3-4.6 4.8-29 16.5-42.7c11.7-13.8 27-22.8 32.3-18.3c5.4 4.6 0.2 22.1-11.6 35.9z" /><path class="s68" d="m108.8 133c-11.7 13.6-31.6 29.4-36.9 24.9c-5.3-4.5 4.7-28.8 16.3-42.4c11.7-13.7 26.8-22.6 32.1-18.1c5.3 4.5 0.1 21.9-11.5 35.6z" /><path class="s69" d="m108.8 132.7c-11.5 13.6-31.3 29.3-36.6 24.8c-5.3-4.5 4.7-28.6 16.2-42.1c11.6-13.6 26.6-22.5 31.9-18c5.2 4.5 0.1 21.8-11.5 35.3z" /><path class="s70" d="m108.9 132.5c-11.5 13.5-31.2 29-36.4 24.6c-5.2-4.5 4.6-28.3 16.1-41.8c11.5-13.5 26.4-22.3 31.7-17.8c5.2 4.4 0.1 21.6-11.4 35z" /><path class="s71" d="m108.9 132.3c-11.4 13.4-30.9 28.8-36 24.4c-5.2-4.5 4.5-28.1 15.9-41.5c11.4-13.4 26.3-22.1 31.4-17.7c5.2 4.4 0.1 21.4-11.3 34.8z" /><path class="s72" d="m109 132.1c-11.3 13.3-30.7 28.5-35.8 24.2c-5.2-4.4 4.5-27.9 15.8-41.2c11.4-13.3 26.1-21.9 31.2-17.6c5.1 4.4 0.1 21.3-11.2 34.6z" /><path class="s73" d="m109.1 131.9c-11.3 13.1-30.5 28.3-35.6 24c-5.1-4.4 4.5-27.7 15.8-40.9c11.2-13.2 25.8-21.8 30.9-17.4c5.1 4.3 0.1 21.1-11.1 34.3z" /><path class="s74" d="m109.1 131.6c-11.1 13.1-30.2 28.2-35.3 23.9c-5-4.4 4.5-27.5 15.7-40.6c11.1-13 25.6-21.6 30.7-17.3c5 4.3 0.1 21-11.1 34z" /><path class="s75" d="m109.2 131.4c-11.1 13-30 27.9-35 23.6c-5-4.2 4.4-27.2 15.5-40.2c11-12.9 25.4-21.4 30.4-17.1c5.1 4.2 0.1 20.7-10.9 33.7z" /><path class="s76" d="m109.2 131.2c-11 12.9-29.7 27.7-34.7 23.4c-5-4.2 4.4-27 15.4-39.8c11-12.9 25.2-21.3 30.2-17.1c5 4.3 0.1 20.6-10.9 33.5z" /><path class="s77" d="m109.3 131c-10.9 12.8-29.5 27.5-34.5 23.2c-4.9-4.2 4.4-26.7 15.3-39.5c10.9-12.8 25-21.2 30-17c4.9 4.3 0.1 20.5-10.8 33.3z" /><path class="s78" d="m109.3 130.8c-10.8 12.7-29.2 27.2-34.1 23c-4.9-4.1 4.3-26.5 15.1-39.2c10.8-12.7 24.9-21 29.8-16.8c4.9 4.2 0.1 20.3-10.8 33z" /><path class="s79" d="m109.4 130.5c-10.7 12.6-29 27.1-33.9 22.9c-4.9-4.1 4.3-26.3 15-38.9c10.7-12.6 24.7-20.8 29.5-16.7c4.9 4.2 0.1 20.2-10.6 32.7z" /><path class="s80" d="m109.4 130.3c-10.6 12.5-28.7 26.8-33.6 22.7c-4.8-4.1 4.3-26.1 14.9-38.6c10.7-12.5 24.5-20.7 29.3-16.5c4.8 4.1 0.1 19.9-10.6 32.4z" /><path class="s81" d="m109.5 130.1c-10.6 12.4-28.6 26.6-33.3 22.5c-4.8-4.1 4.2-25.9 14.7-38.3c10.6-12.4 24.3-20.5 29.1-16.4c4.8 4.1 0.1 19.8-10.5 32.2z" /><path class="s82" d="m109.6 129.9c-10.5 12.3-28.4 26.4-33.1 22.3c-4.8-4 4.2-25.7 14.6-38c10.5-12.3 24.1-20.3 28.9-16.3c4.7 4.1 0 19.7-10.4 32z" /><path class="s83" d="m109.6 129.7c-10.4 12.2-28.1 26.1-32.8 22.1c-4.7-4 4.2-25.5 14.6-37.7c10.3-12.2 23.8-20.1 28.5-16.1c4.7 4 0.1 19.5-10.3 31.7z" /><path class="s84" d="m109.7 129.5c-10.3 12.1-27.9 25.9-32.6 21.9c-4.6-4 4.1-25.2 14.5-37.4c10.3-12.1 23.6-20 28.3-16c4.7 4 0.1 19.3-10.2 31.5z" /><path class="s85" d="m109.7 129.2c-10.2 12-27.6 25.8-32.2 21.8c-4.7-3.9 4-25 14.3-37c10.2-12.1 23.5-19.9 28.1-15.9c4.6 3.9 0.1 19.1-10.2 31.1z" /><path class="s86" d="m109.8 129c-10.2 11.9-27.4 25.5-32 21.6c-4.6-3.9 4-24.8 14.2-36.7c10.1-11.9 23.3-19.7 27.9-15.8c4.6 3.9 0 19-10.1 30.9z" /><path class="s87" d="m109.8 128.8c-10 11.8-27.1 25.3-31.7 21.4c-4.5-3.9 4-24.6 14.1-36.4c10.1-11.8 23.1-19.5 27.6-15.7c4.6 3.9 0.1 18.9-10 30.7z" /><path class="s88" d="m109.9 128.6c-10 11.7-26.9 25-31.4 21.2c-4.5-3.9 3.9-24.4 13.9-36.1c10-11.7 22.9-19.4 27.4-15.5c4.5 3.8 0.1 18.7-9.9 30.4z" /><path class="s89" d="m110 128.4c-9.9 11.6-26.7 24.8-31.2 21c-4.5-3.8 3.9-24.2 13.8-35.8c9.9-11.6 22.7-19.2 27.2-15.4c4.5 3.8 0.1 18.5-9.8 30.2z" /><path class="s90" d="m110 128.1c-9.8 11.6-26.4 24.7-30.9 20.9c-4.4-3.8 3.9-24 13.7-35.5c9.8-11.5 22.5-19 27-15.2c4.4 3.7 0 18.3-9.8 29.8z" /><path class="s91" d="m110.1 127.9c-9.8 11.4-26.2 24.4-30.6 20.7c-4.4-3.8 3.8-23.7 13.5-35.2c9.8-11.4 22.3-18.9 26.7-15.1c4.4 3.7 0.1 18.2-9.6 29.6z" /><path class="s92" d="m110.1 127.7c-9.6 11.3-26 24.2-30.3 20.5c-4.4-3.7 3.8-23.5 13.4-34.9c9.7-11.3 22.2-18.7 26.5-15c4.4 3.7 0.1 18.1-9.6 29.4z" /><path class="s93" d="m110.2 127.5c-9.6 11.2-25.8 24-30.1 20.3c-4.3-3.7 3.8-23.3 13.3-34.5c9.6-11.3 22-18.6 26.3-14.9c4.3 3.7 0 17.8-9.5 29.1z" /><path class="s94" d="m110.2 127.3c-9.4 11.1-25.5 23.7-29.8 20.1c-4.2-3.7 3.8-23.1 13.3-34.2c9.4-11.2 21.7-18.4 26-14.8c4.3 3.7 0 17.7-9.5 28.9z" /><path class="s95" d="m110.3 127c-9.4 11.1-25.3 23.6-29.5 20c-4.3-3.6 3.7-22.9 13.1-33.9c9.4-11.1 21.5-18.3 25.7-14.6c4.3 3.6 0.1 17.5-9.3 28.5z" /><path class="s96" d="m110.4 126.8c-9.4 11-25.1 23.3-29.3 19.8c-4.2-3.6 3.7-22.7 13-33.6c9.3-11 21.3-18.1 25.5-14.5c4.2 3.6 0.1 17.4-9.2 28.3z" /><path class="s97" d="m110.4 126.6c-9.2 10.8-24.8 23.1-29 19.6c-4.1-3.6 3.7-22.5 12.9-33.3c9.2-10.8 21.1-17.9 25.3-14.4c4.2 3.6 0 17.3-9.2 28.1z" /><path class="s98" d="m110.5 126.4c-9.2 10.7-24.6 22.9-28.7 19.4c-4.2-3.6 3.5-22.2 12.7-33c9.1-10.7 20.9-17.7 25.1-14.2c4.1 3.5 0 17-9.1 27.8z" /><path class="s99" d="m110.5 126.2c-9 10.6-24.3 22.6-28.4 19.1c-4.1-3.4 3.5-21.9 12.6-32.6c9.1-10.6 20.8-17.6 24.8-14.1c4.1 3.5 0.1 16.9-9 27.6z" /><path class="s100" d="m110.6 125.9c-9 10.6-24.1 22.5-28.2 19c-4-3.4 3.5-21.7 12.5-32.3c9-10.5 20.6-17.4 24.6-14c4.1 3.5 0.1 16.8-8.9 27.3z" /><path class="s101" d="m110.6 125.7c-8.9 10.5-23.8 22.3-27.8 18.8c-4-3.4 3.4-21.5 12.3-32c8.9-10.4 20.4-17.2 24.4-13.8c4 3.4 0 16.6-8.9 27z" /><path class="s102" d="m110.7 125.5c-8.8 10.4-23.6 22-27.6 18.6c-4-3.3 3.4-21.3 12.2-31.6c8.8-10.4 20.2-17.2 24.2-13.8c3.9 3.4 0 16.4-8.8 26.8z" /><path class="s103" d="m110.7 125.3c-8.7 10.2-23.4 21.8-27.3 18.4c-3.9-3.3 3.4-21.1 12.1-31.3c8.8-10.3 20-17 24-13.6c3.9 3.3 0 16.2-8.8 26.5z" /><path class="s104" d="m110.8 125.1c-8.6 10.1-23.2 21.5-27.1 18.2c-3.8-3.3 3.4-20.9 12-31c8.7-10.2 19.8-16.8 23.7-13.5c3.9 3.3 0 16.1-8.6 26.3z" /><path class="s105" d="m110.9 124.8c-8.6 10.1-23 21.4-26.8 18.1c-3.9-3.3 3.3-20.6 11.9-30.7c8.5-10.1 19.6-16.6 23.4-13.4c3.9 3.3 0 16-8.5 26z" /><path class="s106" d="m110.9 124.6c-8.5 10-22.7 21.2-26.5 17.9c-3.8-3.2 3.3-20.4 11.8-30.4c8.4-10 19.4-16.5 23.2-13.2c3.8 3.2 0 15.8-8.5 25.7z" /><path class="s107" d="m111 124.4c-8.4 9.9-22.5 20.9-26.3 17.7c-3.7-3.2 3.3-20.2 11.7-30.1c8.4-9.9 19.2-16.3 23-13.1c3.7 3.2 0 15.6-8.4 25.5z" /><path class="s108" d="m111 124.2c-8.3 9.8-22.2 20.7-25.9 17.5c-3.8-3.2 3.2-20 11.5-29.8c8.3-9.8 19-16.1 22.7-12.9c3.8 3.1 0 15.4-8.3 25.2z" /><path class="s109" d="m111.1 124c-8.2 9.6-22 20.5-25.7 17.3c-3.7-3.1 3.2-19.8 11.4-29.5c8.2-9.6 18.8-15.9 22.5-12.8c3.7 3.1 0 15.3-8.2 25z" /><path class="s110" d="m111.1 123.7c-8.1 9.6-21.7 20.3-25.4 17.2c-3.6-3.1 3.2-19.6 11.3-29.2c8.1-9.5 18.6-15.8 22.3-12.7c3.6 3.2 0 15.2-8.2 24.7z" /><path class="s111" d="m111.2 123.5c-8.1 9.5-21.5 20.1-25.1 17c-3.7-3.1 3-19.4 11.1-28.8c8.1-9.5 18.4-15.7 22.1-12.6c3.6 3.1 0 14.9-8.1 24.4z" /><path class="s112" d="m111.3 123.3c-8 9.4-21.3 19.8-24.9 16.8c-3.6-3 3-19.1 11-28.5c8-9.4 18.3-15.5 21.8-12.5c3.6 3.1 0 14.8-7.9 24.2z" /><path class="s113" d="m111.3 123.1c-7.9 9.3-21 19.6-24.6 16.6c-3.5-3 3-18.9 10.9-28.2c7.9-9.3 18.1-15.4 21.6-12.3c3.5 3 0 14.6-7.9 23.9z" /><path class="s114" d="m111.4 122.9c-7.8 9.2-20.9 19.4-24.4 16.4c-3.5-3 3-18.7 10.8-27.9c7.8-9.2 17.9-15.2 21.4-12.2c3.5 3 0 14.5-7.8 23.7z" /><path class="s115" d="m111.4 122.7c-7.7 9.1-20.6 19.1-24 16.2c-3.5-3 2.9-18.5 10.6-27.6c7.8-9.1 17.7-15 21.2-12.1c3.4 3-0.1 14.4-7.8 23.5z" /><path class="s116" d="m111.5 122.4c-7.7 9-20.4 19-23.8 16.1c-3.4-2.9 2.9-18.3 10.6-27.3c7.6-9 17.4-14.8 20.8-11.9c3.5 2.9 0 14.1-7.6 23.1z" /><path class="s117" d="m111.5 122.2c-7.5 8.9-20.1 18.7-23.5 15.9c-3.3-2.9 2.9-18.1 10.5-27c7.5-8.9 17.2-14.7 20.6-11.8c3.4 2.9 0 14-7.6 22.9z" /><path class="s118" d="m111.6 122c-7.5 8.8-19.9 18.5-23.2 15.7c-3.4-2.9 2.8-17.9 10.3-26.7c7.5-8.8 17-14.5 20.4-11.6c3.3 2.8 0 13.8-7.5 22.6z" /><path class="s119" d="m111.6 121.8c-7.3 8.7-19.6 18.3-22.9 15.5c-3.3-2.8 2.8-17.6 10.2-26.3c7.4-8.8 16.9-14.4 20.2-11.6c3.3 2.8-0.1 13.7-7.5 22.4z" /><path class="s120" d="m111.7 121.6c-7.3 8.6-19.4 18-22.7 15.3c-3.2-2.8 2.8-17.4 10.1-26c7.3-8.6 16.7-14.2 19.9-11.5c3.3 2.8 0 13.5-7.3 22.2z" /><path class="s121" d="m111.8 121.3c-7.3 8.6-19.2 17.9-22.4 15.2c-3.3-2.8 2.7-17.2 9.9-25.7c7.2-8.5 16.5-14.1 19.7-11.3c3.2 2.7 0 13.3-7.2 21.8z" /><path class="s122" d="m111.8 121.1c-7.1 8.4-18.9 17.7-22.1 15c-3.2-2.8 2.7-17 9.8-25.4c7.2-8.4 16.3-13.9 19.5-11.2c3.2 2.7 0 13.2-7.2 21.6z" /><path class="s123" d="m111.9 120.9c-7.1 8.3-18.7 17.4-21.9 14.7c-3.1-2.6 2.7-16.7 9.7-25c7.1-8.3 16.1-13.7 19.3-11c3.1 2.6-0.1 13-7.1 21.3z" /><path class="s124" d="m111.9 120.7c-6.9 8.2-18.4 17.2-21.6 14.5c-3.1-2.6 2.7-16.5 9.6-24.7c7-8.2 15.9-13.5 19-10.9c3.2 2.6 0 12.9-7 21.1z" /><path class="s125" d="m112 120.5c-6.9 8.1-18.3 16.9-21.3 14.3c-3.1-2.6 2.5-16.3 9.4-24.4c6.9-8.1 15.7-13.4 18.8-10.8c3.1 2.6 0 12.7-6.9 20.9z" /><path class="s126" d="m112 120.2c-6.8 8.1-18 16.8-21 14.2c-3-2.5 2.5-16 9.3-24.1c6.9-8 15.6-13.2 18.6-10.6c3 2.5-0.1 12.5-6.9 20.5z" /><path class="s127" d="m112.1 120c-6.7 8-17.8 16.6-20.8 14c-3-2.5 2.5-15.8 9.3-23.8c6.7-7.9 15.3-13 18.3-10.5c3 2.6-0.1 12.4-6.8 20.3z" /><path class="s128" d="m112.2 119.8c-6.7 7.8-17.6 16.3-20.5 13.8c-3-2.5 2.4-15.6 9.1-23.4c6.6-7.9 15.1-13 18-10.5c3 2.6 0 12.3-6.6 20.1z" /><path class="s129" d="m112.2 119.6c-6.5 7.7-17.3 16.1-20.2 13.6c-2.9-2.4 2.4-15.4 9-23.1c6.5-7.8 14.9-12.8 17.8-10.3c2.9 2.5 0 12-6.6 19.8z" /><path class="s130" d="m112.3 119.4c-6.5 7.6-17.1 15.9-20 13.4c-2.8-2.4 2.4-15.2 8.9-22.8c6.5-7.7 14.7-12.6 17.6-10.2c2.9 2.5-0.1 11.9-6.5 19.6z" /><path class="s131" d="m112.3 119.1c-6.4 7.6-16.8 15.7-19.6 13.3c-2.9-2.4 2.3-15 8.7-22.5c6.4-7.6 14.5-12.4 17.4-10c2.8 2.4-0.1 11.7-6.5 19.2z" /><path class="s132" d="m112.4 118.9c-6.3 7.5-16.6 15.5-19.4 13.1c-2.8-2.4 2.3-14.8 8.6-22.2c6.3-7.4 14.4-12.3 17.1-9.9c2.8 2.4 0 11.6-6.3 19z" /><path class="s133" d="m112.4 118.7c-6.2 7.4-16.3 15.2-19.1 12.9c-2.7-2.3 2.3-14.5 8.5-21.9c6.2-7.3 14.2-12.1 16.9-9.8c2.8 2.4 0 11.5-6.3 18.8z" /><path class="s134" d="m112.5 118.5c-6.2 7.2-16.1 15-18.9 12.7c-2.7-2.3 2.3-14.3 8.4-21.6c6.2-7.2 14-11.9 16.7-9.6c2.7 2.3-0.1 11.2-6.2 18.5z" /><path class="s135" d="m112.5 118.3c-6 7.1-15.8 14.8-18.5 12.5c-2.7-2.3 2.2-14.1 8.2-21.3c6.1-7.1 13.8-11.7 16.5-9.5c2.7 2.3-0.1 11.1-6.2 18.3z" /><path class="s136" d="m112.6 118c-6 7.1-15.7 14.6-18.3 12.4c-2.6-2.2 2.2-13.9 8.1-21c6-7 13.6-11.6 16.3-9.3c2.6 2.2-0.1 10.9-6.1 17.9z" /><path class="s137" d="m112.7 117.8c-5.9 7-15.5 14.4-18.1 12.2c-2.6-2.2 2.2-13.7 8.1-20.6c5.8-7 13.3-11.5 15.9-9.3c2.6 2.2 0 10.8-5.9 17.7z" /><path class="s138" d="m112.7 117.6c-5.8 6.9-15.2 14.2-17.7 12c-2.6-2.2 2.1-13.5 7.9-20.3c5.8-6.9 13.1-11.3 15.7-9.2c2.6 2.2-0.1 10.6-5.9 17.5z" /><path class="s139" d="m112.8 117.4c-5.8 6.8-15 13.9-17.5 11.8c-2.5-2.2 2-13.3 7.8-20c5.7-6.8 13-11.2 15.5-9c2.5 2.1-0.1 10.4-5.8 17.2z" /><path class="s140" d="m112.8 117.2c-5.6 6.6-14.7 13.7-17.2 11.6c-2.5-2.1 2-13 7.7-19.7c5.6-6.7 12.8-11 15.3-8.9c2.4 2.1-0.1 10.3-5.8 17z" /><path class="s141" d="m112.9 117c-5.6 6.5-14.5 13.4-16.9 11.4c-2.5-2.1 1.9-12.8 7.5-19.4c5.5-6.6 12.6-10.8 15-8.7c2.5 2-0.1 10.1-5.6 16.7z" /><path class="s142" d="m112.9 116.7c-5.4 6.5-14.2 13.3-16.6 11.3c-2.4-2.1 1.9-12.6 7.4-19.1c5.5-6.5 12.4-10.6 14.8-8.6c2.4 2-0.1 10-5.6 16.4z" /><path class="s143" d="m113 116.5c-5.4 6.4-14 13.1-16.4 11.1c-2.3-2 1.9-12.4 7.3-18.8c5.4-6.4 12.2-10.5 14.6-8.5c2.3 2-0.1 9.8-5.5 16.2z" /><path class="s144" d="m113.1 116.3c-5.4 6.3-13.8 12.8-16.2 10.9c-2.3-2 1.9-12.2 7.2-18.5c5.3-6.2 12-10.3 14.4-8.3c2.3 2-0.1 9.6-5.4 15.9z" /><path class="s145" d="m113.1 116.1c-5.2 6.2-13.5 12.6-15.8 10.7c-2.3-2 1.8-12 7-18.1c5.2-6.2 11.8-10.2 14.1-8.3c2.3 2-0.1 9.5-5.3 15.7z" /><path class="s146" d="m113.2 115.9c-5.2 6-13.3 12.4-15.6 10.5c-2.2-2 1.8-11.8 6.9-17.8c5.2-6.1 11.7-10 13.9-8.1c2.3 1.9-0.1 9.3-5.2 15.4z" /><path class="s147" d="m113.2 115.6c-5 6-13.1 12.2-15.3 10.3c-2.2-1.8 1.8-11.4 6.8-17.4c5.1-6 11.5-9.9 13.7-8c2.2 1.9-0.1 9.1-5.2 15.1z" /><path class="s148" d="m113.3 115.4c-5 5.9-12.9 12-15 10.1c-2.2-1.8 1.7-11.2 6.7-17.1c4.9-5.9 11.2-9.7 13.4-7.9c2.1 1.9-0.1 9-5.1 14.9z" /><path class="s149" d="m113.3 115.2c-4.9 5.8-12.6 11.7-14.7 9.9c-2.1-1.8 1.7-11 6.6-16.8c4.9-5.8 11-9.5 13.1-7.7c2.2 1.8-0.1 8.8-5 14.6z" /><path class="s150" d="m113.4 115c-4.8 5.7-12.4 11.5-14.5 9.7c-2.1-1.7 1.7-10.8 6.5-16.5c4.8-5.7 10.8-9.4 12.9-7.6c2.1 1.8-0.1 8.7-4.9 14.4z" /><path class="s151" d="m113.4 114.8c-4.7 5.6-12.1 11.3-14.1 9.5c-2.1-1.7 1.6-10.6 6.3-16.2c4.7-5.6 10.6-9.2 12.7-7.4c2 1.7-0.1 8.5-4.9 14.1z" /><path class="s152" d="m113.5 114.5c-4.6 5.5-11.9 11.1-13.9 9.4c-2-1.7 1.5-10.4 6.2-15.9c4.6-5.5 10.4-9 12.5-7.3c2 1.7-0.2 8.3-4.8 13.8z" /><path class="s153" d="m113.6 114.3c-4.6 5.4-11.7 10.9-13.7 9.2c-2-1.6 1.5-10.2 6.1-15.6c4.6-5.4 10.3-8.8 12.2-7.2c2 1.7-0.1 8.2-4.6 13.6z" /><path class="s154" d="m113.6 114.1c-4.5 5.3-11.4 10.7-13.4 9c-1.9-1.6 1.5-9.9 6-15.2c4.5-5.4 10.1-8.8 12-7.1c2 1.6-0.1 8-4.6 13.3z" /><path class="s155" d="m113.7 113.9c-4.4 5.2-11.2 10.4-13.1 8.8c-1.9-1.6 1.4-9.7 5.8-14.9c4.4-5.2 9.9-8.6 11.8-7c1.9 1.6-0.1 7.9-4.5 13.1z" /><path class="s156" d="m113.7 113.7c-4.3 5.1-10.9 10.2-12.8 8.6c-1.9-1.6 1.4-9.5 5.7-14.6c4.3-5.1 9.7-8.4 11.6-6.8c1.8 1.5-0.2 7.6-4.5 12.8z" /><path class="s157" d="m113.8 113.4c-4.2 5.1-10.7 10-12.6 8.5c-1.8-1.5 1.4-9.3 5.6-14.3c4.3-5 9.5-8.2 11.3-6.7c1.9 1.5-0.1 7.5-4.3 12.5z" /><path class="s158" d="m113.8 113.2c-4.1 4.9-10.5 9.8-12.2 8.3c-1.8-1.5 1.3-9.1 5.4-14c4.2-4.9 9.3-8.1 11.1-6.6c1.8 1.5-0.1 7.4-4.3 12.3z" /><path class="s159" d="m113.9 113c-4.1 4.8-10.3 9.6-12 8.1c-1.7-1.5 1.3-8.9 5.4-13.7c4-4.8 9-7.9 10.8-6.4c1.7 1.4-0.1 7.2-4.2 12z" /><path class="s160" d="m114 112.8c-4 4.7-10.1 9.3-11.8 7.9c-1.7-1.4 1.3-8.7 5.3-13.4c3.9-4.7 8.9-7.7 10.6-6.3c1.7 1.4-0.2 7.1-4.1 11.8z" /><path class="s161" d="m114 112.6c-3.9 4.6-9.8 9.1-11.4 7.7c-1.7-1.4 1.2-8.4 5.1-13.1c3.9-4.6 8.7-7.6 10.3-6.2c1.7 1.5-0.1 6.9-4 11.6z" /><path class="s162" d="m114.1 112.3c-3.8 4.6-9.6 9-11.2 7.6c-1.6-1.4 1.2-8.2 5-12.8c3.8-4.5 8.5-7.4 10.1-6c1.6 1.4-0.1 6.7-3.9 11.2z" /><path class="s163" d="m114.1 112.1c-3.7 4.5-9.3 8.7-10.9 7.4c-1.6-1.4 1.2-8 4.9-12.4c3.7-4.5 8.3-7.3 9.9-6c1.6 1.4-0.2 6.6-3.9 11z" /><path class="s164" d="m114.2 111.9c-3.7 4.3-9.1 8.5-10.7 7.2c-1.5-1.3 1.2-7.8 4.8-12.1c3.6-4.4 8.1-7.1 9.7-5.8c1.5 1.3-0.2 6.4-3.8 10.7z" /><path class="s165" d="m114.2 111.7c-3.5 4.2-8.8 8.2-10.3 7c-1.5-1.3 1.1-7.6 4.6-11.8c3.6-4.3 7.9-7 9.4-5.7c1.6 1.3-0.1 6.2-3.7 10.5z" /><path class="s166" d="m114.3 111.5c-3.5 4.1-8.6 8-10.1 6.8c-1.5-1.3 1-7.4 4.5-11.5c3.5-4.2 7.8-6.8 9.2-5.6c1.5 1.3-0.1 6.1-3.6 10.3z" /><path class="s167" d="m114.3 111.3c-3.3 4-8.3 7.8-9.8 6.6c-1.4-1.2 1-7.1 4.4-11.2c3.4-4 7.6-6.6 9-5.4c1.4 1.2-0.2 5.9-3.6 10z" /><path class="s168" d="m114.4 111c-3.3 4-8.1 7.6-9.5 6.5c-1.4-1.2 0.9-6.9 4.2-10.9c3.3-3.9 7.4-6.4 8.8-5.3c1.4 1.2-0.2 5.8-3.5 9.7z" /><path class="s169" d="m114.5 110.8c-3.3 3.9-8 7.4-9.3 6.3c-1.4-1.2 0.9-6.7 4.1-10.6c3.3-3.8 7.2-6.3 8.5-5.1c1.4 1.1-0.1 5.6-3.3 9.4z" /><path class="s170" d="m114.5 110.6c-3.1 3.7-7.7 7.2-9 6.1c-1.3-1.1 0.9-6.5 4.1-10.3c3.1-3.7 6.9-6.1 8.2-5c1.3 1.1-0.1 5.4-3.3 9.2z" /><path class="s171" d="m114.6 110.4c-3.1 3.6-7.5 6.9-8.7 5.8c-1.3-1 0.8-6.2 3.9-9.8c3-3.7 6.7-6 8-5c1.3 1.1-0.2 5.3-3.2 9z" /><path class="s172" d="m114.6 110.2c-2.9 3.5-7.2 6.7-8.4 5.6c-1.2-1 0.8-6 3.8-9.5c2.9-3.6 6.5-5.8 7.8-4.8c1.2 1-0.2 5.1-3.2 8.7z" /><path class="s173" d="m114.7 109.9c-2.9 3.5-7 6.5-8.2 5.5c-1.2-1 0.8-5.8 3.7-9.2c2.9-3.5 6.4-5.7 7.6-4.7c1.1 1-0.2 5-3.1 8.4z" /><path class="s174" d="m114.7 109.7c-2.8 3.4-6.7 6.3-7.9 5.3c-1.1-0.9 0.8-5.5 3.6-8.9c2.8-3.4 6.2-5.5 7.3-4.5c1.2 0.9-0.2 4.7-3 8.1z" /><path class="s175" d="m114.8 109.5c-2.7 3.3-6.5 6.1-7.6 5.1c-1.1-0.9 0.7-5.3 3.4-8.6c2.7-3.3 6-5.3 7.1-4.4c1.1 0.9-0.2 4.6-2.9 7.9z" /><path class="s176" d="m114.9 109.3c-2.7 3.1-6.3 5.8-7.4 4.9c-1.1-0.9 0.7-5.1 3.3-8.3c2.6-3.2 5.8-5.2 6.9-4.3c1.1 0.9-0.2 4.5-2.8 7.7z" /><path class="s177" d="m114.9 109.1c-2.5 3-6 5.6-7.1 4.7c-1-0.8 0.7-4.9 3.2-8c2.6-3.1 5.6-5 6.7-4.1c1 0.8-0.2 4.3-2.8 7.4z" /><path class="s178" d="m115 108.8c-2.5 3-5.8 5.5-6.8 4.6c-1-0.8 0.6-4.7 3-7.7c2.5-2.9 5.4-4.8 6.4-4c1 0.9-0.2 4.2-2.6 7.1z" /><path class="s179" d="m115 108.6c-2.4 2.9-5.5 5.2-6.5 4.4c-1-0.8 0.6-4.5 2.9-7.4c2.4-2.8 5.2-4.6 6.2-3.8c1 0.8-0.2 3.9-2.6 6.8z" /><path class="s180" d="m115.1 108.4c-2.3 2.8-5.4 5-6.3 4.2c-0.9-0.8 0.5-4.3 2.8-7c2.4-2.8 5.1-4.6 6-3.8c0.9 0.8-0.2 3.8-2.5 6.6z" /><path class="s181" d="m115.1 108.2c-2.2 2.7-5.1 4.7-5.9 4c-0.9-0.7 0.4-4 2.7-6.7c2.2-2.7 4.8-4.4 5.7-3.7c0.8 0.8-0.2 3.7-2.5 6.4z" /><path class="s182" d="m115.2 108c-2.1 2.6-4.9 4.5-5.7 3.8c-0.9-0.7 0.4-3.8 2.6-6.4c2.1-2.6 4.6-4.2 5.4-3.5c0.9 0.7-0.2 3.5-2.3 6.1z" /><path class="s183" d="m115.3 107.7c-2.1 2.5-4.7 4.4-5.5 3.7c-0.8-0.7 0.4-3.6 2.5-6.1c2-2.5 4.4-4 5.2-3.4c0.8 0.7-0.2 3.4-2.2 5.8z" /><path class="s184" d="m115.3 107.5c-2 2.4-4.4 4.1-5.2 3.5c-0.7-0.6 0.4-3.4 2.4-5.8c2-2.4 4.2-3.9 5-3.2c0.8 0.6-0.2 3.1-2.2 5.5z" /><path class="s185" d="m115.4 107.3c-1.9 2.3-4.2 3.9-4.9 3.3c-0.8-0.6 0.3-3.2 2.2-5.5c1.9-2.3 4-3.7 4.8-3.1c0.7 0.6-0.3 3-2.1 5.3z" /><path class="s186" d="m115.4 107.1c-1.8 2.2-3.9 3.7-4.6 3.1c-0.7-0.6 0.3-3 2.1-5.2c1.8-2.2 3.8-3.5 4.5-3c0.7 0.6-0.2 2.9-2 5.1z" /><path class="s187" d="m115.5 106.9c-1.7 2.1-3.7 3.4-4.4 2.9c-0.6-0.5 0.3-2.8 2-4.9c1.7-2.1 3.7-3.4 4.3-2.8c0.7 0.5-0.2 2.7-1.9 4.8z" /><path class="s188" d="m115.5 106.6c-1.6 2.1-3.4 3.3-4 2.8c-0.6-0.5 0.2-2.5 1.8-4.6c1.7-2 3.5-3.2 4.1-2.7c0.6 0.5-0.2 2.5-1.9 4.5z" /><g clip-path="url(#cp1)"><path class="s189" d="m73 116q-0.1 0.4 0 0.8c-16.5 6-33.2 11.7-49.7 17.7q0.1-0.4 0.3-0.5q24.7-9 49.4-18zm45.1-16.4q0.1 0.3 0.2 0.7c-15 5.4-30.3 10.9-45.3 16.5q-0.1-0.4 0-0.8q22.5-8.2 45.1-16.4zm-45.1 17.2q0 0.4 0.2 0.9c-16.6 6-33.2 12-49.8 17.9c-0.1-0.4-0.2-0.8-0.1-1.1c16.5-6 33.2-11.7 49.7-17.7zm45.3-16.5q0.2 0.4 0.3 0.8c-15.1 5.4-30.3 11-45.4 16.6q-0.2-0.5-0.2-0.9c15-5.6 30.3-11.1 45.3-16.5zm-45.1 17.4c0.1 0.4 0.3 0.8 0.5 1.1c-16.6 6.1-33.1 12.3-49.6 18.3c-0.4-0.4-0.6-0.9-0.7-1.5c16.6-5.9 33.2-11.9 49.8-17.9zm45.4-16.6q0.2 0.5 0.4 1c-15.1 5.5-30.2 11.1-45.3 16.7c-0.2-0.3-0.4-0.7-0.5-1.1c15.1-5.6 30.3-11.2 45.4-16.6zm-44.9 17.7c0.2 0.4 0.4 0.6 0.6 0.8q-24.7 9-49.4 18c-0.2 0.1-0.6-0.1-0.8-0.5c16.5-6 33-12.2 49.6-18.3zm45.3-16.7q0.2 0.5 0.4 1.1q-22.6 8.2-45.1 16.4c-0.2-0.2-0.4-0.4-0.6-0.8c15.1-5.6 30.2-11.2 45.3-16.7z" /><path class="s190" d="m64.4 119.2c0.2 0.6-8.9 4.5-20.4 8.7c-11.4 4.1-20.9 7-21.1 6.4c-0.3-0.6 8.8-4.5 20.3-8.7c11.5-4.2 20.9-7 21.2-6.4z" /><path class="s191" d="m45.3 131.4c-11.4 4.2-20.9 7.1-21.1 6.4c-0.3-0.6 8.8-4.5 20.3-8.6c11.5-4.2 20.9-7.1 21.1-6.5c0.3 0.7-8.8 4.5-20.3 8.7z" /></g><g clip-path="url(#cp2)"><path class="s192" d="m44.3 130.5c-0.1 0.4 1.9 0.7 1.7 1.2c-12.8 5-17.1 5.9-17.1 5.9c-0.4-0.7-0.7-1.2-0.7-1.2c0 0 2.4-0.9 16.1-5.9zm19.7-7.2q-0.2 0.7-0.6 1.4c-7 2.9-12.7 5.2-17.4 7c0.2-0.5-1.8-0.8-1.7-1.2c5-1.8 11.4-4.1 19.7-7.2zm-18 8.4c-0.1 0.7 2.5 1.4 4.4 2c-10.9 5.5-20.1 8.2-20.1 8.2c-0.1-1.5-0.9-3.1-1.4-4.3c0 0 4.3-0.9 17.1-5.9zm17.4-7q-0.5 1-1.2 1.9c-3.9 2.7-7.8 5.1-11.8 7.1c-1.9-0.6-4.5-1.3-4.4-2c4.7-1.8 10.4-4.1 17.4-7zm-13 9c1.2 0.4 2.1 0.8 1.8 1.2c-10 5.8-22.4 9.3-22.4 9.3c0.5-0.6 0.6-1.4 0.5-2.3c0 0 9.2-2.7 20.1-8.2zm11.8-7.1q-0.4 0.6-0.9 1.2c-2.3 2.6-5.6 5-9.1 7.1c0.3-0.4-0.6-0.8-1.8-1.2c4-2 7.9-4.4 11.8-7.1z" /><path class="s193" d="m26.7 142.1l-2.5-6.7l43.8-15.9l2.4 6.7z" /><path class="s194" d="m60 123c0.4 0.9 0.6 1.8 0.6 2.8q0.2 1.5 0 3.1q-0.1 1.5-0.5 3.1q-0.2 0.7-0.5 1.5q-0.2 0.8-0.5 1.6q0.2-0.8 0.3-1.6q0.2-0.8 0.4-1.5q0.3-1.6 0.4-3.1q0.2-1.5 0.1-3q0-0.8-0.1-1.5c0-0.5-0.1-1-0.2-1.4z" /><path class="s194" d="m57.6 123.8c0.4 0.9 0.6 1.9 0.7 2.9q0.1 1.5 0 3q-0.2 1.6-0.6 3.1q-0.2 0.8-0.4 1.6q-0.3 0.7-0.6 1.5q0.2-0.8 0.4-1.5q0.2-0.8 0.3-1.6q0.3-1.5 0.5-3q0.1-1.6 0.1-3q0-0.8-0.1-1.5q-0.2-0.8-0.3-1.5z" /><path class="s194" d="m55.3 124.7c0.3 0.9 0.5 1.9 0.6 2.9q0.1 1.4 0 3q-0.2 1.5-0.6 3.1q-0.2 0.8-0.4 1.5q-0.3 0.8-0.6 1.6q0.2-0.8 0.4-1.6q0.2-0.7 0.3-1.5q0.4-1.5 0.5-3.1q0.2-1.5 0.1-3q0-0.7-0.1-1.5c0-0.5-0.1-0.9-0.2-1.4z" /><path class="s194" d="m52.9 125.5c0.4 1 0.6 1.9 0.6 2.9q0.2 1.5 0 3q-0.1 1.6-0.5 3.1q-0.2 0.8-0.5 1.6q-0.2 0.8-0.5 1.5q0.2-0.7 0.3-1.5q0.2-0.8 0.4-1.5q0.3-1.6 0.4-3.1q0.2-1.5 0.2-3q-0.1-0.8-0.2-1.5c0-0.5-0.1-1-0.2-1.5z" /><path class="s194" d="m50.5 126.4c0.4 0.9 0.6 1.9 0.7 2.9q0.1 1.5 0 3q-0.2 1.5-0.6 3.1q-0.2 0.8-0.4 1.6q-0.3 0.7-0.6 1.5q0.2-0.8 0.4-1.5q0.2-0.8 0.3-1.6q0.3-1.5 0.5-3q0.1-1.6 0.1-3.1q0-0.7-0.1-1.4q-0.2-0.7-0.3-1.5z" /><path class="s194" d="m48.2 127.3c0.3 0.9 0.5 1.8 0.6 2.8q0.1 1.5 0 3.1q-0.2 1.5-0.6 3.1q-0.2 0.7-0.4 1.5q-0.3 0.8-0.6 1.6q0.2-0.8 0.4-1.6q0.2-0.8 0.4-1.5q0.3-1.6 0.4-3.1q0.2-1.5 0.1-3q0-0.7-0.1-1.5c0-0.5-0.1-1-0.2-1.4z" /><path class="s194" d="m45.8 128.1c0.4 0.9 0.6 1.9 0.7 2.9q0.1 1.5-0.1 3q-0.1 1.6-0.5 3.1q-0.2 0.8-0.5 1.6q-0.2 0.8-0.5 1.5q0.2-0.8 0.3-1.5q0.2-0.8 0.4-1.6q0.3-1.5 0.4-3q0.2-1.5 0.2-3q-0.1-0.8-0.2-1.5c0-0.5-0.1-1-0.2-1.5z" /><path class="s194" d="m43.4 129c0.4 0.9 0.6 1.9 0.7 2.9q0.1 1.5 0 3q-0.2 1.5-0.6 3.1q-0.2 0.8-0.4 1.5q-0.3 0.8-0.6 1.6q0.2-0.8 0.4-1.6q0.2-0.7 0.3-1.5q0.3-1.5 0.5-3.1q0.1-1.5 0.1-3q0-0.7-0.1-1.5c-0.1-0.5-0.2-0.9-0.3-1.4z" /><path class="s194" d="m41.1 129.8c0.3 1 0.5 1.9 0.6 2.9q0.2 1.5 0 3.1q-0.2 1.5-0.6 3q-0.2 0.8-0.4 1.6q-0.3 0.8-0.6 1.5q0.2-0.7 0.4-1.5q0.2-0.8 0.4-1.5q0.3-1.6 0.4-3.1q0.2-1.5 0.1-3q0-0.8-0.1-1.5c0-0.5-0.1-1-0.2-1.5z" /><path class="s194" d="m38.7 130.7c0.4 0.9 0.6 1.9 0.7 2.9q0.1 1.5-0.1 3q-0.1 1.6-0.5 3.1q-0.2 0.8-0.5 1.6q-0.2 0.7-0.5 1.5q0.2-0.8 0.4-1.5q0.1-0.8 0.3-1.6q0.3-1.5 0.4-3q0.2-1.6 0.2-3.1q-0.1-0.7-0.2-1.4c0-0.5-0.1-1-0.2-1.5z" /><path class="s194" d="m36.4 131.6c0.3 0.9 0.5 1.9 0.6 2.8q0.1 1.5 0 3.1q-0.2 1.5-0.6 3.1q-0.2 0.7-0.4 1.5q-0.3 0.8-0.6 1.6q0.2-0.8 0.4-1.6q0.2-0.7 0.3-1.5q0.3-1.6 0.5-3.1q0.1-1.5 0.1-3q0-0.7-0.1-1.5c-0.1-0.5-0.2-0.9-0.2-1.4z" /><path class="s194" d="m34 132.4c0.3 0.9 0.5 1.9 0.6 2.9q0.2 1.5 0 3q-0.2 1.6-0.5 3.1q-0.2 0.8-0.5 1.6q-0.3 0.8-0.6 1.5q0.2-0.7 0.4-1.5q0.2-0.8 0.4-1.6q0.3-1.5 0.4-3q0.2-1.5 0.1-3q0-0.8-0.1-1.5c0-0.5-0.1-1-0.2-1.5z" /><path class="s194" d="m31.6 133.3c0.4 0.9 0.6 1.9 0.7 2.9q0.1 1.5-0.1 3q-0.1 1.5-0.5 3.1q-0.2 0.8-0.5 1.5q-0.2 0.8-0.5 1.6q0.2-0.8 0.4-1.6q0.1-0.7 0.3-1.5q0.3-1.5 0.4-3.1q0.2-1.5 0.2-3q-0.1-0.7-0.1-1.4q-0.2-0.8-0.3-1.5z" /><path class="s195" d="m59.6 123.1c0.4 0.9 0.5 1.9 0.6 2.9q0.1 1.5 0 3q-0.2 1.5-0.5 3.1q-0.4 1.5-1 3.1q0.4-1.6 0.7-3.1q0.4-1.5 0.5-3.1q0.2-1.5 0.1-3q0-1.5-0.4-2.9z" /><path class="s195" d="m57.3 124c0.3 0.9 0.5 1.8 0.6 2.8q0.1 1.5-0.1 3.1q-0.1 1.5-0.5 3.1q-0.4 1.5-1 3.1q0.5-1.6 0.8-3.1q0.3-1.6 0.4-3.1q0.2-1.5 0.1-3q0-1.5-0.3-2.9z" /><path class="s195" d="m54.9 124.8c0.3 0.9 0.5 1.9 0.6 2.9q0.1 1.5 0 3q-0.2 1.6-0.6 3.1q-0.3 1.6-0.9 3.1q0.4-1.5 0.7-3.1q0.3-1.5 0.5-3q0.1-1.6 0.1-3.1q-0.1-1.5-0.4-2.9z" /><path class="s195" d="m52.5 125.7c0.4 0.9 0.6 1.9 0.6 2.9q0.1 1.5 0 3q-0.2 1.5-0.5 3.1q-0.4 1.5-1 3.1q0.4-1.6 0.7-3.1q0.4-1.6 0.5-3.1q0.2-1.5 0.1-3q0-1.5-0.4-2.9z" /><path class="s195" d="m50.2 126.5c0.3 1 0.5 1.9 0.6 2.9q0.1 1.5-0.1 3q-0.1 1.6-0.5 3.1q-0.4 1.6-1 3.1q0.5-1.5 0.8-3.1q0.3-1.5 0.4-3q0.2-1.5 0.1-3q0-1.5-0.3-3z" /><path class="s195" d="m47.8 127.4c0.3 0.9 0.5 1.9 0.6 2.9q0.1 1.5 0 3q-0.2 1.5-0.6 3.1q-0.3 1.6-0.9 3.1q0.4-1.6 0.7-3.1q0.3-1.5 0.5-3.1q0.1-1.5 0.1-3q-0.1-1.5-0.4-2.9z" /><path class="s195" d="m45.4 128.3c0.4 0.9 0.6 1.9 0.6 2.8q0.2 1.5 0 3.1q-0.2 1.5-0.5 3.1q-0.4 1.5-1 3.1q0.4-1.6 0.7-3.1q0.4-1.6 0.5-3.1q0.2-1.5 0.1-3q0-1.5-0.4-2.9z" /><path class="s195" d="m43.1 129.1c0.3 0.9 0.5 1.9 0.6 2.9q0.1 1.5-0.1 3q-0.1 1.6-0.5 3.1q-0.4 1.6-1 3.1q0.5-1.5 0.8-3.1q0.3-1.5 0.5-3q0.1-1.6 0.1-3q-0.1-1.5-0.4-3z" /><path class="s195" d="m40.7 130c0.3 0.9 0.5 1.9 0.6 2.9q0.1 1.5 0 3q-0.2 1.5-0.6 3.1q-0.3 1.5-0.9 3.1q0.4-1.6 0.7-3.1q0.3-1.5 0.5-3.1q0.1-1.5 0.1-3q-0.1-1.5-0.4-2.9z" /><path class="s195" d="m38.3 130.8c0.4 1 0.6 1.9 0.6 2.9q0.2 1.5 0 3.1q-0.2 1.5-0.5 3q-0.4 1.6-1 3.1q0.4-1.5 0.8-3q0.3-1.6 0.4-3.1q0.2-1.5 0.1-3q0-1.5-0.4-3z" /><path class="s195" d="m36 131.7c0.3 0.9 0.5 1.9 0.6 2.9q0.1 1.5-0.1 3q-0.1 1.6-0.5 3.1q-0.4 1.6-1 3.1q0.5-1.5 0.8-3.1q0.3-1.5 0.5-3q0.1-1.6 0.1-3.1q-0.1-1.5-0.4-2.9z" /><path class="s195" d="m33.6 132.6c0.3 0.9 0.5 1.9 0.6 2.9q0.1 1.4 0 3q-0.2 1.5-0.6 3.1q-0.3 1.5-0.9 3.1q0.4-1.6 0.7-3.1q0.3-1.6 0.5-3.1q0.2-1.5 0.1-3q-0.1-1.5-0.4-2.9z" /><path class="s195" d="m31.2 133.4c0.4 0.9 0.6 1.9 0.6 2.9q0.2 1.5 0 3q-0.1 1.6-0.5 3.1q-0.4 1.6-1 3.1q0.4-1.5 0.8-3.1q0.3-1.5 0.4-3q0.2-1.5 0.1-3q0-1.5-0.4-3z" /><path class="s195" d="m60.9 122.6c0.3 1 0.5 1.9 0.6 2.9q0.1 1.5-0.1 3q-0.1 1.6-0.5 3.1q-0.4 1.6-1 3.1q0.5-1.5 0.8-3.1q0.3-1.5 0.5-3q0.1-1.5 0.1-3q-0.1-1.5-0.4-3z" /><path class="s195" d="m58.5 123.5c0.3 0.9 0.5 1.9 0.6 2.9q0.1 1.5 0 3q-0.2 1.5-0.6 3.1q-0.3 1.6-0.9 3.1q0.4-1.6 0.7-3.1q0.3-1.5 0.5-3.1q0.2-1.5 0.1-3q-0.1-1.5-0.4-2.9z" /><path class="s195" d="m56.1 124.4c0.4 0.9 0.6 1.9 0.6 2.8q0.2 1.5 0 3.1q-0.1 1.5-0.5 3.1q-0.4 1.5-1 3.1q0.4-1.6 0.8-3.1q0.3-1.6 0.4-3.1q0.2-1.5 0.1-3q0-1.5-0.4-2.9z" /><path class="s195" d="m53.8 125.2c0.3 0.9 0.5 1.9 0.6 2.9q0.1 1.5-0.1 3q-0.1 1.6-0.5 3.1q-0.4 1.6-1 3.1q0.5-1.5 0.8-3.1q0.3-1.5 0.5-3q0.1-1.6 0.1-3q-0.1-1.5-0.4-3z" /><path class="s195" d="m51.4 126.1c0.4 0.9 0.5 1.9 0.6 2.9q0.1 1.5 0 3q-0.2 1.5-0.6 3.1q-0.3 1.5-0.9 3.1q0.4-1.6 0.7-3.1q0.4-1.5 0.5-3.1q0.2-1.5 0.1-3q-0.1-1.5-0.4-2.9z" /><path class="s195" d="m49.1 126.9c0.3 1 0.5 1.9 0.6 2.9q0.1 1.5-0.1 3.1q-0.1 1.5-0.5 3q-0.4 1.6-1 3.1q0.4-1.5 0.8-3q0.3-1.6 0.4-3.1q0.2-1.5 0.1-3q0-1.5-0.3-3z" /><path class="s195" d="m46.7 127.8c0.3 0.9 0.5 1.9 0.6 2.9q0.1 1.5 0 3q-0.2 1.6-0.6 3.1q-0.4 1.6-1 3.1q0.5-1.5 0.8-3.1q0.3-1.5 0.5-3q0.1-1.6 0.1-3.1q-0.1-1.5-0.4-2.9z" /><path class="s195" d="m44.3 128.7c0.4 0.9 0.5 1.9 0.6 2.9q0.1 1.4 0 3q-0.2 1.5-0.6 3.1q-0.3 1.5-0.9 3.1q0.4-1.6 0.7-3.1q0.4-1.6 0.5-3.1q0.2-1.5 0.1-3q-0.1-1.5-0.4-2.9z" /><path class="s195" d="m42 129.5c0.3 0.9 0.5 1.9 0.6 2.9q0.1 1.5-0.1 3q-0.1 1.6-0.5 3.1q-0.4 1.6-1 3.1q0.4-1.5 0.8-3.1q0.3-1.5 0.4-3q0.2-1.5 0.1-3q0-1.5-0.3-3z" /><path class="s195" d="m39.6 130.4c0.3 0.9 0.5 1.9 0.6 2.9q0.1 1.5 0 3q-0.2 1.5-0.6 3.1q-0.4 1.5-1 3.1q0.5-1.6 0.8-3.1q0.3-1.5 0.5-3.1q0.1-1.5 0.1-3q-0.1-1.5-0.4-2.9z" /><path class="s195" d="m37.2 131.3c0.4 0.9 0.5 1.8 0.6 2.8q0.1 1.5 0 3.1q-0.2 1.5-0.5 3.1q-0.4 1.5-1 3.1q0.4-1.6 0.7-3.1q0.4-1.6 0.5-3.1q0.2-1.5 0.1-3q-0.1-1.5-0.4-2.9z" /><path class="s195" d="m34.9 132.1c0.3 0.9 0.5 1.9 0.6 2.9q0.1 1.5-0.1 3q-0.1 1.6-0.5 3.1q-0.4 1.6-1 3.1q0.4-1.5 0.8-3.1q0.3-1.5 0.4-3q0.2-1.6 0.1-3.1q0-1.4-0.3-2.9z" /><path class="s195" d="m32.5 133c0.3 0.9 0.5 1.9 0.6 2.9q0.1 1.5 0 3q-0.2 1.5-0.6 3.1q-0.4 1.5-1 3.1q0.5-1.6 0.8-3.1q0.3-1.6 0.5-3.1q0.1-1.5 0.1-3q-0.1-1.5-0.4-2.9z" /><path class="s195" d="m61.4 122.4c0.4 0.9 0.6 1.9 0.6 2.9q0.2 1.5 0 3q-0.1 1.6-0.5 3.1q-0.4 1.6-1 3.1q0.4-1.5 0.8-3.1q0.3-1.5 0.4-3q0.2-1.6 0.1-3q0-1.5-0.4-3z" /><path class="s195" d="m59.1 123.3c0.3 0.9 0.5 1.9 0.6 2.9q0.1 1.5-0.1 3q-0.1 1.5-0.5 3.1q-0.4 1.5-1 3.1q0.5-1.6 0.8-3.1q0.3-1.5 0.5-3.1q0.1-1.5 0.1-3q-0.1-1.5-0.4-2.9z" /><path class="s195" d="m56.7 124.2c0.4 0.9 0.5 1.8 0.6 2.8q0.1 1.5 0 3.1q-0.2 1.5-0.6 3.1q-0.3 1.5-0.9 3.1q0.4-1.6 0.7-3.1q0.4-1.6 0.5-3.1q0.2-1.5 0.1-3q-0.1-1.5-0.4-2.9z" /><path class="s195" d="m54.4 125c0.3 0.9 0.5 1.9 0.6 2.9q0.1 1.5-0.1 3q-0.1 1.6-0.5 3.1q-0.4 1.6-1 3.1q0.4-1.5 0.8-3.1q0.3-1.5 0.4-3q0.2-1.6 0.1-3.1q0-1.5-0.3-2.9z" /><path class="s195" d="m52 125.9c0.3 0.9 0.5 1.9 0.6 2.9q0.1 1.5 0 3q-0.2 1.5-0.6 3.1q-0.4 1.5-1 3.1q0.5-1.6 0.8-3.1q0.3-1.6 0.5-3.1q0.1-1.5 0.1-3q-0.1-1.5-0.4-2.9z" /><path class="s195" d="m49.6 126.7c0.4 1 0.5 1.9 0.6 2.9q0.1 1.5 0 3.1q-0.2 1.5-0.5 3q-0.4 1.6-1 3.1q0.4-1.5 0.7-3.1q0.4-1.5 0.5-3q0.2-1.5 0.1-3q-0.1-1.5-0.4-3z" /><path class="s195" d="m47.3 127.6c0.3 0.9 0.5 1.9 0.6 2.9q0.1 1.5-0.1 3q-0.1 1.5-0.5 3.1q-0.4 1.6-1 3.1q0.4-1.6 0.8-3.1q0.3-1.5 0.4-3.1q0.2-1.5 0.1-3q0-1.5-0.3-2.9z" /><path class="s195" d="m44.9 128.5c0.3 0.9 0.5 1.9 0.6 2.8q0.1 1.5 0 3.1q-0.2 1.5-0.6 3.1q-0.4 1.5-1 3.1q0.5-1.6 0.8-3.1q0.3-1.6 0.5-3.1q0.1-1.5 0.1-3q-0.1-1.5-0.4-2.9z" /><path class="s195" d="m42.5 129.3c0.4 0.9 0.5 1.9 0.6 2.9q0.1 1.5 0 3q-0.2 1.6-0.5 3.1q-0.4 1.6-1 3.1q0.4-1.5 0.7-3.1q0.4-1.5 0.5-3q0.2-1.6 0.1-3q-0.1-1.5-0.4-3z" /><path class="s195" d="m40.2 130.2c0.3 0.9 0.5 1.9 0.6 2.9q0.1 1.5-0.1 3q-0.1 1.5-0.5 3.1q-0.4 1.5-1 3.1q0.4-1.6 0.8-3.1q0.3-1.5 0.4-3.1q0.2-1.5 0.1-3q0-1.5-0.3-2.9z" /><path class="s195" d="m37.8 131c0.3 1 0.5 1.9 0.6 2.9q0.1 1.5 0 3.1q-0.2 1.5-0.6 3q-0.4 1.6-1 3.1q0.5-1.5 0.8-3q0.3-1.6 0.5-3.1q0.1-1.5 0.1-3q-0.1-1.5-0.4-3z" /><path class="s195" d="m35.4 131.9c0.4 0.9 0.5 1.9 0.6 2.9q0.1 1.5 0 3q-0.2 1.6-0.5 3.1q-0.4 1.6-1 3.1q0.4-1.5 0.7-3.1q0.4-1.5 0.5-3q0.2-1.6 0.1-3.1q0-1.5-0.4-2.9z" /><path class="s195" d="m33.1 132.8c0.3 0.9 0.5 1.9 0.6 2.9q0.1 1.4-0.1 3q-0.1 1.5-0.5 3.1q-0.4 1.5-1 3.1q0.5-1.6 0.8-3.1q0.3-1.6 0.4-3.1q0.2-1.5 0.1-3q0-1.5-0.3-2.9z" /><g style="opacity: .5"><path class="s196" d="m62 122.2c0.4 0.9 0.5 1.9 0.6 2.9q0.1 1.5 0 3q-0.2 1.6-0.6 3.1q-0.3 1.6-0.9 3.1q0.4-1.5 0.7-3.1q0.4-1.5 0.5-3q0.2-1.6 0.1-3.1q-0.1-1.4-0.4-2.9z" /><path class="s196" d="m59.7 123.1c0.3 0.9 0.5 1.9 0.6 2.9q0.1 1.5-0.1 3q-0.1 1.5-0.5 3.1q-0.4 1.5-1 3.1q0.4-1.6 0.8-3.1q0.3-1.5 0.4-3.1q0.2-1.5 0.1-3q0-1.5-0.3-2.9z" /><path class="s196" d="m57.3 123.9c0.3 1 0.5 1.9 0.6 2.9q0.1 1.5 0 3.1q-0.2 1.5-0.6 3q-0.4 1.6-1 3.1q0.5-1.5 0.8-3q0.3-1.6 0.5-3.1q0.1-1.5 0.1-3q-0.1-1.5-0.4-3z" /><path class="s196" d="m54.9 124.8c0.4 0.9 0.5 1.9 0.6 2.9q0.1 1.5 0 3q-0.2 1.6-0.5 3.1q-0.4 1.6-1 3.1q0.4-1.5 0.7-3.1q0.4-1.5 0.5-3q0.2-1.6 0.1-3.1q-0.1-1.5-0.4-2.9z" /><path class="s196" d="m52.6 125.7c0.3 0.9 0.5 1.9 0.6 2.9q0.1 1.4-0.1 3q-0.1 1.5-0.5 3.1q-0.4 1.5-1 3.1q0.4-1.6 0.8-3.1q0.3-1.6 0.4-3.1q0.2-1.5 0.1-3q0-1.5-0.3-2.9z" /><path class="s196" d="m50.2 126.5c0.3 0.9 0.5 1.9 0.6 2.9q0.1 1.5 0 3q-0.2 1.6-0.6 3.1q-0.4 1.6-1 3.1q0.5-1.5 0.8-3.1q0.3-1.5 0.5-3q0.1-1.5 0.1-3q-0.1-1.5-0.4-3z" /><path class="s196" d="m47.8 127.4c0.4 0.9 0.5 1.9 0.6 2.9q0.1 1.5 0 3q-0.2 1.5-0.5 3.1q-0.4 1.5-1 3.1q0.4-1.6 0.7-3.1q0.4-1.5 0.5-3.1q0.2-1.5 0.1-3q-0.1-1.5-0.4-2.9z" /><path class="s196" d="m45.5 128.3c0.3 0.9 0.5 1.8 0.6 2.8q0.1 1.5-0.1 3.1q-0.1 1.5-0.5 3.1q-0.4 1.5-1 3.1q0.4-1.6 0.8-3.1q0.3-1.6 0.4-3.1q0.2-1.5 0.1-3q0-1.5-0.3-2.9z" /><path class="s196" d="m43.1 129.1c0.3 0.9 0.5 1.9 0.6 2.9q0.1 1.5 0 3q-0.2 1.6-0.6 3.1q-0.4 1.6-1 3.1q0.5-1.5 0.8-3.1q0.3-1.5 0.5-3q0.1-1.6 0.1-3.1q-0.1-1.5-0.4-2.9z" /><path class="s196" d="m40.7 130c0.4 0.9 0.5 1.9 0.6 2.9q0.1 1.5 0 3q-0.2 1.5-0.5 3.1q-0.4 1.5-1 3.1q0.4-1.6 0.7-3.1q0.4-1.6 0.5-3.1q0.2-1.5 0.1-3q0-1.5-0.4-2.9z" /><path class="s196" d="m38.4 130.8c0.3 1 0.5 1.9 0.6 2.9q0.1 1.5-0.1 3.1q-0.1 1.5-0.5 3q-0.4 1.6-1 3.1q0.5-1.5 0.8-3.1q0.3-1.5 0.4-3q0.2-1.5 0.1-3q0-1.5-0.3-3z" /><path class="s196" d="m36 131.7c0.3 0.9 0.5 1.9 0.6 2.9q0.1 1.5 0 3q-0.2 1.5-0.6 3.1q-0.4 1.6-1 3.1q0.5-1.6 0.8-3.1q0.3-1.5 0.5-3.1q0.1-1.5 0.1-3q-0.1-1.5-0.4-2.9z" /><path class="s196" d="m33.6 132.6c0.4 0.9 0.5 1.9 0.6 2.8q0.1 1.5 0 3.1q-0.2 1.5-0.5 3.1q-0.4 1.5-1 3.1q0.4-1.6 0.7-3.1q0.4-1.6 0.5-3.1q0.2-1.5 0.1-3q0-1.5-0.4-2.9z" /></g><g style="opacity: .5"><path class="s196" d="m60.5 122.8c0.3 0.9 0.5 1.9 0.6 2.9q0.1 1.5 0 3q-0.2 1.5-0.6 3.1q-0.3 1.5-0.9 3.1q0.4-1.6 0.7-3.1q0.3-1.6 0.5-3.1q0.1-1.5 0.1-3q-0.1-1.5-0.4-2.9z" /><path class="s196" d="m58.1 123.6c0.4 1 0.6 1.9 0.6 2.9q0.1 1.5 0 3q-0.2 1.6-0.5 3.1q-0.4 1.6-1 3.1q0.4-1.5 0.7-3.1q0.4-1.5 0.5-3q0.2-1.5 0.1-3q0-1.5-0.4-3z" /><path class="s196" d="m55.8 124.5c0.3 0.9 0.5 1.9 0.6 2.9q0.1 1.5-0.1 3q-0.1 1.5-0.5 3.1q-0.4 1.6-1 3.1q0.5-1.6 0.8-3.1q0.3-1.5 0.4-3.1q0.2-1.5 0.1-3q0-1.5-0.3-2.9z" /><path class="s196" d="m53.4 125.4c0.3 0.9 0.5 1.9 0.6 2.8q0.1 1.5 0 3.1q-0.2 1.5-0.6 3.1q-0.3 1.5-0.9 3.1q0.4-1.6 0.7-3.1q0.3-1.6 0.5-3.1q0.1-1.5 0.1-3q-0.1-1.5-0.4-2.9z" /><path class="s196" d="m51 126.2c0.4 0.9 0.6 1.9 0.6 2.9q0.2 1.5 0 3q-0.2 1.6-0.5 3.1q-0.4 1.6-1 3.1q0.4-1.5 0.7-3.1q0.4-1.5 0.5-3q0.2-1.6 0.1-3.1q0-1.4-0.4-2.9z" /><path class="s196" d="m48.7 127.1c0.3 0.9 0.5 1.9 0.6 2.9q0.1 1.5-0.1 3q-0.1 1.5-0.5 3.1q-0.4 1.5-1 3.1q0.5-1.6 0.8-3.1q0.3-1.5 0.5-3.1q0.1-1.5 0.1-3q-0.1-1.5-0.4-2.9z" /><path class="s196" d="m46.3 127.9c0.3 1 0.5 1.9 0.6 2.9q0.1 1.5 0 3.1q-0.2 1.5-0.6 3q-0.3 1.6-0.9 3.1q0.4-1.5 0.7-3q0.3-1.6 0.5-3.1q0.1-1.5 0.1-3q-0.1-1.5-0.4-3z" /><path class="s196" d="m43.9 128.8c0.4 0.9 0.6 1.9 0.6 2.9q0.2 1.5 0 3q-0.2 1.6-0.5 3.1q-0.4 1.6-1 3.1q0.4-1.5 0.8-3.1q0.3-1.5 0.4-3q0.2-1.6 0.1-3.1q0-1.5-0.4-2.9z" /><path class="s196" d="m41.6 129.7c0.3 0.9 0.5 1.9 0.6 2.8q0.1 1.5-0.1 3.1q-0.1 1.5-0.5 3.1q-0.4 1.5-1 3.1q0.5-1.6 0.8-3.1q0.3-1.6 0.5-3.1q0.1-1.5 0.1-3q-0.1-1.5-0.4-2.9z" /><path class="s196" d="m39.2 130.5c0.3 0.9 0.5 1.9 0.6 2.9q0.1 1.5 0 3q-0.2 1.6-0.6 3.1q-0.3 1.6-0.9 3.1q0.4-1.5 0.7-3.1q0.3-1.5 0.5-3q0.2-1.6 0.1-3q-0.1-1.5-0.4-3z" /><path class="s196" d="m36.8 131.4c0.4 0.9 0.6 1.9 0.6 2.9q0.2 1.5 0 3q-0.1 1.5-0.5 3.1q-0.4 1.5-1 3.1q0.4-1.6 0.8-3.1q0.3-1.5 0.4-3.1q0.2-1.5 0.1-3q0-1.5-0.4-2.9z" /><path class="s196" d="m34.5 132.3c0.3 0.9 0.5 1.8 0.6 2.8q0.1 1.5-0.1 3.1q-0.1 1.5-0.5 3.1q-0.4 1.5-1 3.1q0.5-1.6 0.8-3.1q0.3-1.6 0.5-3.1q0.1-1.5 0.1-3q-0.1-1.5-0.4-2.9z" /><path class="s196" d="m32.1 133.1c0.3 0.9 0.5 1.9 0.6 2.9q0.1 1.5 0 3q-0.2 1.6-0.6 3.1q-0.3 1.6-0.9 3.1q0.4-1.5 0.7-3.1q0.3-1.5 0.5-3q0.2-1.6 0.1-3.1q-0.1-1.5-0.4-2.9z" /></g></g><path class="s197" d="m39.9 140.8c-4.7 1.7-8.8 2-9.3 0.7c-0.5-1.3 2.9-3.7 7.6-5.4c4.6-1.7 8.8-2 9.3-0.7c0.5 1.3-2.9 3.7-7.6 5.4z" /><g clip-path="url(#cp3)"><path class="s198" d="m26.9 132.8c0 0-0.1-0.6-0.3-1.4c0 0 3.9-2 17-6.5c0.4 0.3-0.9 1.8-0.6 2c-13.7 5.1-16.1 5.9-16.1 5.9zm16.1-5.9c-0.3-0.2 1-1.7 0.6-2c4.7-1.6 10.5-3.5 17.8-5.8q0.7 0.3 1.3 0.7c-8.3 3-14.7 5.3-19.7 7.1zm-16.4 4.5c-0.3-1.2-0.8-2.9-1.6-4.2c0 0 8.7-3.8 20.7-6.6c-1.1 1.7-2.7 3.9-2.1 4.3c-13.1 4.5-17 6.5-17 6.5zm17-6.5c-0.6-0.4 1-2.6 2.1-4.3c4.2-1 8.8-1.8 13.5-2.2q1.2 0.3 2.2 0.7c-7.3 2.3-13.1 4.2-17.8 5.8zm-18.6 2.3c-0.5-0.7-1.1-1.3-1.9-1.4c0 0 11.7-5.3 23.1-7.2c0.6 0 0.1 0.9-0.5 2c-12 2.8-20.7 6.6-20.7 6.6zm20.7-6.6c0.6-1.1 1.1-2 0.5-2c4.1-0.8 8.1-1 11.5-0.5q0.8 0.1 1.5 0.3c-4.7 0.4-9.3 1.2-13.5 2.2z" /><path class="s199" d="m65.8 113.5l2.4 6.7l-43.7 15.9l-2.5-6.7z" /><path class="s194" d="m59.1 121.4q-0.4-0.6-0.8-1.2q-1-1.2-2.1-2.3q-1.1-1-2.3-2q-0.6-0.5-1.2-1q-0.7-0.5-1.3-0.9q0.7 0.4 1.4 0.8q0.7 0.4 1.4 0.9q1.3 0.9 2.4 2q1.1 1.1 1.9 2.3c0.6 0.8 1.1 1.7 1.4 2.6c-0.3-0.4-0.5-0.8-0.8-1.2z" /><path class="s194" d="m56.8 122.2q-0.4-0.6-0.9-1.2q-0.9-1.1-2-2.2q-1.1-1.1-2.3-2.1q-0.7-0.5-1.3-0.9q-0.6-0.5-1.3-1q0.8 0.4 1.4 0.9q0.7 0.4 1.4 0.9q1.3 0.9 2.4 2q1.1 1.1 2 2.3c0.5 0.8 1 1.7 1.3 2.6c-0.2-0.4-0.4-0.9-0.7-1.3z" /><path class="s194" d="m54.4 123.1q-0.4-0.6-0.9-1.2q-0.9-1.2-2-2.2q-1.1-1.1-2.3-2.1q-0.6-0.5-1.3-1q-0.6-0.4-1.3-0.9q0.8 0.4 1.5 0.8q0.7 0.5 1.3 0.9q1.3 1 2.4 2q1.1 1.1 2 2.3c0.6 0.9 1 1.7 1.4 2.7c-0.3-0.5-0.5-0.9-0.8-1.3z" /><path class="s194" d="m52 124q-0.4-0.7-0.8-1.2q-1-1.2-2.1-2.3q-1.1-1.1-2.3-2q-0.6-0.5-1.2-1q-0.7-0.5-1.3-0.9q0.7 0.4 1.4 0.8q0.7 0.4 1.4 0.9q1.3 0.9 2.4 2q1.1 1.1 1.9 2.3c0.6 0.8 1.1 1.7 1.4 2.6c-0.2-0.4-0.5-0.8-0.8-1.2z" /><path class="s194" d="m49.7 124.8q-0.4-0.6-0.9-1.2q-0.9-1.2-2-2.2q-1.1-1.1-2.3-2.1q-0.6-0.5-1.3-0.9q-0.6-0.5-1.3-1q0.8 0.4 1.5 0.8q0.6 0.5 1.3 0.9q1.3 1 2.4 2.1q1.1 1 2 2.3c0.5 0.8 1 1.7 1.3 2.6c-0.2-0.4-0.4-0.9-0.7-1.3z" /><path class="s194" d="m47.3 125.7q-0.4-0.6-0.9-1.2q-0.9-1.2-2-2.3q-1.1-1-2.3-2q-0.6-0.5-1.3-1q-0.6-0.4-1.2-0.9q0.7 0.4 1.4 0.8q0.7 0.4 1.3 0.9q1.3 0.9 2.4 2q1.1 1.1 2 2.3c0.6 0.9 1 1.7 1.4 2.6c-0.3-0.4-0.5-0.8-0.8-1.2z" /><path class="s194" d="m44.9 126.5q-0.4-0.6-0.8-1.2q-1-1.1-2.1-2.2q-1-1.1-2.3-2.1q-0.6-0.4-1.2-0.9q-0.7-0.5-1.3-0.9q0.7 0.3 1.4 0.8q0.7 0.4 1.4 0.9q1.3 0.9 2.4 2q1.1 1.1 1.9 2.3c0.6 0.8 1.1 1.7 1.4 2.6c-0.2-0.4-0.5-0.9-0.8-1.3z" /><path class="s194" d="m42.6 127.4q-0.4-0.6-0.9-1.2q-0.9-1.2-2-2.2q-1.1-1.1-2.3-2.1q-0.6-0.5-1.3-1q-0.6-0.4-1.3-0.9q0.8 0.4 1.5 0.8q0.6 0.5 1.3 0.9q1.3 1 2.4 2q1.1 1.1 2 2.4c0.5 0.8 1 1.6 1.3 2.6c-0.2-0.5-0.4-0.9-0.7-1.3z" /><path class="s194" d="m40.2 128.3q-0.4-0.7-0.9-1.2q-0.9-1.2-2-2.3q-1.1-1-2.3-2q-0.6-0.5-1.3-1q-0.6-0.5-1.2-0.9q0.7 0.4 1.4 0.8q0.7 0.4 1.3 0.9q1.3 0.9 2.4 2q1.1 1.1 2 2.3c0.6 0.8 1.1 1.7 1.4 2.6c-0.3-0.4-0.5-0.8-0.8-1.2z" /><path class="s194" d="m37.8 129.1q-0.4-0.6-0.8-1.2q-1-1.1-2.1-2.2q-1-1.1-2.3-2.1q-0.6-0.5-1.2-0.9q-0.7-0.5-1.3-1q0.7 0.4 1.4 0.9q0.7 0.4 1.4 0.9q1.3 0.9 2.4 2q1.1 1.1 1.9 2.3c0.6 0.8 1.1 1.7 1.4 2.6c-0.2-0.4-0.5-0.9-0.8-1.3z" /><path class="s194" d="m35.5 130q-0.4-0.6-0.9-1.2q-0.9-1.2-2-2.3q-1.1-1-2.3-2q-0.6-0.5-1.3-1q-0.6-0.4-1.3-0.9q0.8 0.4 1.5 0.8q0.6 0.5 1.3 0.9q1.3 1 2.4 2q1.1 1.1 2 2.3c0.5 0.9 1 1.7 1.3 2.7c-0.2-0.5-0.4-0.9-0.7-1.3z" /><path class="s194" d="m33.1 130.8q-0.4-0.6-0.9-1.2q-0.9-1.1-2-2.2q-1.1-1.1-2.3-2q-0.6-0.5-1.3-1q-0.6-0.5-1.2-0.9q0.7 0.4 1.4 0.8q0.7 0.4 1.3 0.9q1.3 0.9 2.4 2q1.2 1.1 2 2.3c0.6 0.8 1.1 1.7 1.4 2.6c-0.3-0.4-0.5-0.8-0.8-1.3z" /><path class="s194" d="m30.7 131.7q-0.4-0.6-0.8-1.2q-1-1.2-2-2.2q-1.1-1.1-2.4-2.1q-0.6-0.5-1.2-0.9q-0.7-0.5-1.3-1q0.7 0.4 1.4 0.8q0.7 0.5 1.4 0.9q1.3 1 2.4 2.1q1.1 1 1.9 2.3c0.6 0.8 1.1 1.6 1.4 2.6c-0.2-0.5-0.5-0.9-0.8-1.3z" /><path class="s195" d="m57.9 120.3q-0.9-1.2-2-2.3q-1.1-1-2.3-2q-1.3-1-2.6-1.9q1.5 0.8 2.8 1.8q1.2 0.9 2.3 2q1.1 1.1 2 2.3c0.6 0.8 1.1 1.7 1.4 2.6q-0.7-1.3-1.6-2.5z" /><path class="s195" d="m55.6 121.1q-1-1.1-2.1-2.2q-1-1.1-2.3-2q-1.2-1-2.6-1.9q1.5 0.8 2.8 1.7q1.3 1 2.4 2q1.1 1.1 2 2.3c0.5 0.9 1 1.7 1.4 2.6q-0.7-1.3-1.6-2.5z" /><path class="s195" d="m53.2 122q-0.9-1.2-2-2.2q-1.1-1.1-2.4-2.1q-1.2-1-2.5-1.9q1.4 0.8 2.7 1.8q1.3 0.9 2.4 2q1.1 1.1 2 2.3c0.6 0.8 1.1 1.7 1.4 2.6q-0.7-1.3-1.6-2.5z" /><path class="s195" d="m50.8 122.9q-0.9-1.2-2-2.3q-1.1-1-2.3-2q-1.3-1-2.6-1.9q1.5 0.8 2.8 1.7q1.2 1 2.4 2.1q1.1 1 1.9 2.3c0.6 0.8 1.1 1.6 1.4 2.6q-0.7-1.4-1.6-2.5z" /><path class="s195" d="m48.5 123.7q-1-1.1-2.1-2.2q-1-1.1-2.3-2.1q-1.2-0.9-2.6-1.8q1.5 0.8 2.8 1.7q1.3 1 2.4 2q1.1 1.1 2 2.3c0.5 0.8 1 1.7 1.4 2.6q-0.7-1.3-1.6-2.5z" /><path class="s195" d="m46.1 124.6q-0.9-1.2-2-2.3q-1.1-1-2.4-2q-1.2-1-2.5-1.9q1.4 0.8 2.7 1.8q1.3 0.9 2.4 2q1.1 1.1 2 2.3c0.6 0.8 1.1 1.7 1.4 2.6q-0.7-1.3-1.6-2.5z" /><path class="s195" d="m43.7 125.5q-0.9-1.2-2-2.3q-1.1-1.1-2.3-2q-1.3-1-2.6-1.9q1.5 0.8 2.8 1.7q1.2 1 2.4 2q1.1 1.1 1.9 2.3c0.6 0.9 1.1 1.7 1.4 2.6q-0.7-1.3-1.6-2.4z" /><path class="s195" d="m41.4 126.3q-0.9-1.2-2.1-2.2q-1-1.1-2.3-2.1q-1.2-0.9-2.6-1.8q1.5 0.7 2.8 1.7q1.3 0.9 2.4 2q1.1 1.1 2 2.3c0.5 0.8 1 1.7 1.4 2.6q-0.7-1.3-1.6-2.5z" /><path class="s195" d="m39 127.2q-0.9-1.2-2-2.3q-1.1-1-2.3-2q-1.3-1-2.6-1.9q1.4 0.8 2.7 1.8q1.3 0.9 2.4 2q1.1 1.1 2 2.3c0.6 0.8 1.1 1.6 1.4 2.6q-0.7-1.3-1.6-2.5z" /><path class="s195" d="m36.6 128q-0.9-1.1-2-2.2q-1.1-1.1-2.3-2.1q-1.2-0.9-2.6-1.8q1.5 0.8 2.8 1.7q1.2 1 2.4 2q1.1 1.1 1.9 2.3c0.6 0.8 1.1 1.7 1.4 2.6q-0.6-1.3-1.6-2.5z" /><path class="s195" d="m34.3 128.9q-0.9-1.2-2.1-2.2q-1-1.1-2.3-2.1q-1.2-1-2.5-1.9q1.4 0.8 2.7 1.8q1.3 0.9 2.4 2q1.1 1.1 2 2.3c0.5 0.8 1 1.7 1.4 2.6q-0.7-1.3-1.6-2.5z" /><path class="s195" d="m31.9 129.8q-0.9-1.2-2-2.3q-1.1-1.1-2.3-2q-1.3-1-2.6-1.9q1.4 0.8 2.7 1.7q1.3 1 2.4 2.1q1.1 1 2 2.3c0.6 0.8 1.1 1.6 1.4 2.5q-0.7-1.3-1.6-2.4z" /><path class="s195" d="m29.5 130.6q-0.9-1.2-2-2.2q-1.1-1.1-2.3-2.1q-1.2-0.9-2.6-1.8q1.5 0.8 2.8 1.7q1.2 0.9 2.4 2q1.1 1.1 1.9 2.3c0.6 0.8 1.1 1.7 1.4 2.6q-0.6-1.3-1.6-2.5z" /><path class="s195" d="m59.2 119.8q-0.9-1.1-2-2.2q-1.1-1.1-2.4-2.1q-1.2-0.9-2.5-1.8q1.4 0.8 2.7 1.7q1.3 1 2.4 2q1.1 1.1 2 2.3c0.5 0.8 1 1.7 1.4 2.6q-0.7-1.3-1.6-2.5z" /><path class="s195" d="m56.8 120.7q-0.9-1.2-2-2.3q-1.1-1-2.3-2q-1.3-1-2.6-1.9q1.4 0.8 2.7 1.8q1.3 0.9 2.4 2q1.1 1.1 2 2.3c0.6 0.8 1.1 1.7 1.4 2.6q-0.7-1.3-1.6-2.5z" /><path class="s195" d="m54.4 121.6q-0.9-1.2-2-2.3q-1.1-1.1-2.3-2q-1.2-1-2.6-1.9q1.5 0.8 2.8 1.7q1.2 1 2.4 2q1.1 1.1 1.9 2.3c0.6 0.9 1.1 1.7 1.4 2.6q-0.6-1.3-1.6-2.4z" /><path class="s195" d="m52.1 122.4q-0.9-1.2-2-2.2q-1.1-1.1-2.4-2.1q-1.2-0.9-2.5-1.8q1.4 0.7 2.7 1.7q1.3 0.9 2.4 2q1.1 1.1 2 2.3c0.5 0.8 1 1.7 1.4 2.6q-0.7-1.3-1.6-2.5z" /><path class="s195" d="m49.7 123.3q-0.9-1.2-2-2.3q-1.1-1-2.3-2q-1.3-1-2.6-1.9q1.4 0.8 2.7 1.8q1.3 0.9 2.4 2q1.1 1.1 2 2.3c0.6 0.8 1.1 1.6 1.4 2.6q-0.7-1.3-1.6-2.5z" /><path class="s195" d="m47.3 124.1q-0.9-1.1-2-2.2q-1.1-1.1-2.3-2.1q-1.2-0.9-2.6-1.8q1.5 0.8 2.8 1.7q1.3 1 2.4 2q1.1 1.1 1.9 2.3c0.6 0.8 1.1 1.7 1.4 2.6q-0.6-1.3-1.6-2.5z" /><path class="s195" d="m45 125q-0.9-1.2-2-2.2q-1.1-1.1-2.4-2.1q-1.2-1-2.5-1.9q1.4 0.8 2.7 1.8q1.3 0.9 2.4 2q1.1 1.1 2 2.3c0.5 0.8 1 1.7 1.4 2.6q-0.7-1.3-1.6-2.5z" /><path class="s195" d="m42.6 125.9q-0.9-1.2-2-2.3q-1.1-1.1-2.3-2q-1.3-1-2.6-1.9q1.4 0.8 2.7 1.7q1.3 1 2.4 2.1q1.1 1 2 2.3c0.6 0.8 1.1 1.6 1.4 2.5q-0.7-1.3-1.6-2.4z" /><path class="s195" d="m40.2 126.7q-0.9-1.2-2-2.2q-1.1-1.1-2.3-2.1q-1.2-0.9-2.6-1.8q1.5 0.8 2.8 1.7q1.3 0.9 2.4 2q1.1 1.1 1.9 2.3c0.6 0.8 1.1 1.7 1.4 2.6q-0.6-1.3-1.6-2.5z" /><path class="s195" d="m37.9 127.6q-0.9-1.2-2-2.3q-1.1-1-2.4-2q-1.2-1-2.5-1.9q1.4 0.8 2.7 1.8q1.3 0.9 2.4 2q1.1 1.1 2 2.3c0.5 0.8 1 1.7 1.4 2.6q-0.7-1.3-1.6-2.5z" /><path class="s195" d="m35.5 128.4q-0.9-1.1-2-2.2q-1.1-1.1-2.3-2q-1.3-1-2.6-1.9q1.5 0.8 2.7 1.7q1.3 1 2.4 2q1.1 1.1 2 2.3c0.6 0.9 1.1 1.7 1.4 2.6q-0.7-1.3-1.6-2.5z" /><path class="s195" d="m33.1 129.3q-0.9-1.2-2-2.2q-1.1-1.1-2.3-2.1q-1.2-1-2.6-1.9q1.5 0.8 2.8 1.8q1.3 0.9 2.4 2q1.1 1.1 1.9 2.3c0.6 0.8 1.1 1.7 1.4 2.6q-0.6-1.3-1.6-2.5z" /><path class="s195" d="m30.8 130.2q-0.9-1.2-2-2.3q-1.1-1-2.4-2q-1.2-1-2.5-1.9q1.4 0.8 2.7 1.7q1.3 1 2.4 2.1q1.1 1 2 2.3c0.6 0.8 1 1.6 1.4 2.6q-0.7-1.3-1.6-2.5z" /><path class="s195" d="m59.7 119.6q-0.9-1.2-2-2.2q-1.1-1.1-2.3-2.1q-1.2-0.9-2.6-1.8q1.5 0.8 2.8 1.7q1.3 0.9 2.4 2q1.1 1.1 1.9 2.3c0.6 0.8 1.1 1.7 1.4 2.6q-0.6-1.3-1.6-2.5z" /><path class="s195" d="m57.4 120.5q-0.9-1.2-2-2.3q-1.1-1-2.4-2q-1.2-1-2.5-1.9q1.4 0.8 2.7 1.8q1.3 0.9 2.4 2q1.1 1.1 2 2.3c0.5 0.8 1 1.7 1.4 2.6q-0.7-1.3-1.6-2.5z" /><path class="s195" d="m55 121.3q-0.9-1.1-2-2.2q-1.1-1.1-2.3-2q-1.3-1-2.6-1.9q1.4 0.8 2.7 1.7q1.3 1 2.4 2q1.1 1.1 2 2.3c0.6 0.9 1.1 1.7 1.4 2.6q-0.7-1.3-1.6-2.5z" /><path class="s195" d="m52.6 122.2q-0.9-1.2-2-2.2q-1.1-1.1-2.3-2.1q-1.2-1-2.6-1.9q1.5 0.8 2.8 1.8q1.3 0.9 2.4 2q1.1 1.1 1.9 2.3c0.6 0.8 1.1 1.7 1.4 2.6q-0.6-1.3-1.6-2.5z" /><path class="s195" d="m50.3 123.1q-0.9-1.2-2-2.3q-1.1-1-2.4-2q-1.2-1-2.5-1.9q1.4 0.8 2.7 1.7q1.3 1 2.4 2.1q1.1 1 2 2.3c0.5 0.8 1 1.6 1.4 2.6q-0.7-1.4-1.6-2.5z" /><path class="s195" d="m47.9 123.9q-0.9-1.1-2-2.2q-1.1-1.1-2.3-2.1q-1.3-0.9-2.6-1.8q1.5 0.8 2.7 1.7q1.3 1 2.4 2q1.1 1.1 2 2.3c0.6 0.8 1.1 1.7 1.4 2.6q-0.7-1.3-1.6-2.5z" /><path class="s195" d="m45.5 124.8q-0.9-1.2-2-2.3q-1.1-1-2.3-2q-1.2-1-2.6-1.9q1.5 0.8 2.8 1.8q1.3 0.9 2.4 2q1.1 1.1 1.9 2.3c0.6 0.8 1.1 1.7 1.4 2.6q-0.6-1.3-1.6-2.5z" /><path class="s195" d="m43.2 125.7q-0.9-1.2-2-2.3q-1.1-1.1-2.4-2q-1.2-1-2.5-1.9q1.4 0.8 2.7 1.7q1.3 1 2.4 2q1.1 1.1 2 2.3c0.6 0.9 1 1.7 1.4 2.6q-0.7-1.3-1.6-2.4z" /><path class="s195" d="m40.8 126.5q-0.9-1.2-2-2.2q-1.1-1.1-2.3-2.1q-1.3-0.9-2.6-1.8q1.5 0.7 2.7 1.7q1.3 0.9 2.4 2q1.1 1.1 2 2.3c0.6 0.8 1.1 1.7 1.4 2.6q-0.7-1.3-1.6-2.5z" /><path class="s195" d="m38.4 127.4q-0.9-1.2-2-2.3q-1.1-1-2.3-2q-1.2-1-2.6-1.9q1.5 0.8 2.8 1.8q1.3 0.9 2.4 2q1.1 1.1 1.9 2.3c0.6 0.8 1.1 1.6 1.4 2.6q-0.6-1.3-1.6-2.5z" /><path class="s195" d="m36.1 128.2q-0.9-1.1-2-2.2q-1.1-1.1-2.4-2.1q-1.2-0.9-2.5-1.8q1.4 0.8 2.7 1.7q1.3 1 2.4 2q1.1 1.1 2 2.3c0.6 0.8 1 1.7 1.4 2.6q-0.7-1.3-1.6-2.5z" /><path class="s195" d="m33.7 129.1q-0.9-1.2-2-2.2q-1.1-1.1-2.3-2.1q-1.3-1-2.6-1.9q1.5 0.8 2.7 1.8q1.3 0.9 2.4 2q1.1 1.1 2 2.3c0.6 0.8 1.1 1.7 1.4 2.6q-0.7-1.3-1.6-2.5z" /><path class="s195" d="m31.4 130q-1-1.2-2.1-2.3q-1.1-1.1-2.3-2q-1.2-1-2.6-1.9q1.5 0.8 2.8 1.7q1.3 1 2.4 2.1q1.1 1 2 2.3c0.5 0.8 1 1.6 1.3 2.5q-0.6-1.3-1.5-2.4z" /><g style="opacity: .5"><path class="s196" d="m60.3 119.4q-0.9-1.2-2-2.2q-1.1-1.1-2.3-2.1q-1.3-0.9-2.6-1.9q1.4 0.8 2.7 1.8q1.3 0.9 2.4 2q1.1 1.1 2 2.3c0.6 0.8 1.1 1.7 1.4 2.6q-0.7-1.3-1.6-2.5z" /><path class="s196" d="m57.9 120.3q-0.9-1.2-2-2.3q-1.1-1-2.3-2q-1.2-1-2.6-1.9q1.5 0.8 2.8 1.8q1.3 0.9 2.4 2q1.1 1.1 1.9 2.3c0.6 0.8 1.1 1.6 1.4 2.6q-0.6-1.3-1.6-2.5z" /><path class="s196" d="m55.6 121.1q-0.9-1.1-2-2.2q-1.1-1.1-2.4-2.1q-1.2-0.9-2.5-1.8q1.4 0.8 2.7 1.7q1.3 1 2.4 2q1.1 1.1 2 2.3c0.6 0.8 1 1.7 1.4 2.6q-0.7-1.3-1.6-2.5z" /><path class="s196" d="m53.2 122q-0.9-1.2-2-2.2q-1.1-1.1-2.3-2.1q-1.3-1-2.6-1.9q1.5 0.8 2.7 1.8q1.3 0.9 2.4 2q1.1 1.1 2 2.3c0.6 0.8 1.1 1.7 1.4 2.6q-0.7-1.3-1.6-2.5z" /><path class="s196" d="m50.8 122.9q-0.9-1.2-2-2.3q-1.1-1.1-2.3-2q-1.2-1-2.6-1.9q1.5 0.8 2.8 1.7q1.3 1 2.4 2.1q1.1 1 1.9 2.3c0.6 0.8 1.1 1.6 1.4 2.5q-0.6-1.3-1.6-2.4z" /><path class="s196" d="m48.5 123.7q-0.9-1.2-2-2.2q-1.1-1.1-2.4-2.1q-1.2-0.9-2.5-1.8q1.4 0.8 2.7 1.7q1.3 0.9 2.4 2q1.1 1.1 2 2.3c0.6 0.8 1 1.7 1.4 2.6q-0.7-1.3-1.6-2.5z" /><path class="s196" d="m46.1 124.6q-0.9-1.2-2-2.3q-1.1-1-2.3-2q-1.3-1-2.6-1.9q1.5 0.8 2.7 1.8q1.3 0.9 2.4 2q1.1 1.1 2 2.3c0.6 0.8 1.1 1.7 1.4 2.6q-0.7-1.3-1.6-2.5z" /><path class="s196" d="m43.8 125.4q-1-1.1-2.1-2.2q-1.1-1.1-2.3-2q-1.2-1-2.6-1.9q1.5 0.8 2.8 1.7q1.3 1 2.4 2q1.1 1.1 1.9 2.3c0.6 0.9 1.1 1.7 1.4 2.6q-0.6-1.3-1.5-2.5z" /><path class="s196" d="m41.4 126.3q-0.9-1.2-2-2.2q-1.1-1.1-2.4-2.1q-1.2-1-2.5-1.9q1.4 0.8 2.7 1.8q1.3 0.9 2.4 2q1.1 1.1 2 2.3c0.6 0.8 1 1.7 1.4 2.6q-0.7-1.3-1.6-2.5z" /><path class="s196" d="m39 127.2q-0.9-1.2-2-2.3q-1.1-1-2.3-2q-1.3-1-2.6-1.9q1.5 0.8 2.7 1.7q1.3 1 2.4 2.1q1.1 1 2 2.3c0.6 0.8 1.1 1.6 1.4 2.6q-0.7-1.4-1.6-2.5z" /><path class="s196" d="m36.7 128q-1-1.1-2.1-2.2q-1.1-1.1-2.3-2.1q-1.2-0.9-2.6-1.8q1.5 0.8 2.8 1.7q1.3 1 2.4 2q1.1 1.1 2 2.3c0.5 0.8 1 1.7 1.3 2.6q-0.6-1.3-1.5-2.5z" /><path class="s196" d="m34.3 128.9q-0.9-1.2-2-2.3q-1.1-1-2.4-2q-1.2-1-2.5-1.9q1.4 0.8 2.7 1.8q1.3 0.9 2.4 2q1.1 1.1 2 2.3c0.6 0.8 1 1.7 1.4 2.6q-0.7-1.3-1.6-2.5z" /><path class="s196" d="m31.9 129.8q-0.9-1.2-2-2.3q-1.1-1.1-2.3-2q-1.3-1-2.6-1.9q1.5 0.8 2.7 1.7q1.3 1 2.4 2q1.1 1.1 2 2.3c0.6 0.9 1.1 1.7 1.4 2.6q-0.7-1.3-1.6-2.4z" /></g><g style="opacity: .5"><path class="s196" d="m58.8 120q-0.9-1.2-2-2.3q-1.1-1.1-2.4-2q-1.2-1-2.5-1.9q1.4 0.8 2.7 1.7q1.3 1 2.4 2.1q1.1 1 2 2.3c0.6 0.8 1.1 1.6 1.4 2.6q-0.7-1.4-1.6-2.5z" /><path class="s196" d="m56.4 120.8q-0.9-1.2-2-2.2q-1.1-1.1-2.3-2.1q-1.3-0.9-2.6-1.8q1.5 0.8 2.8 1.7q1.2 1 2.4 2q1.1 1.1 1.9 2.3c0.6 0.8 1.1 1.7 1.4 2.6q-0.7-1.3-1.6-2.5z" /><path class="s196" d="m54.1 121.7q-1-1.2-2.1-2.3q-1-1-2.3-2q-1.2-1-2.6-1.9q1.5 0.8 2.8 1.8q1.3 0.9 2.4 2q1.1 1.1 2 2.3c0.5 0.8 1 1.7 1.4 2.6q-0.7-1.3-1.6-2.5z" /><path class="s196" d="m51.7 122.6q-0.9-1.2-2-2.3q-1.1-1.1-2.4-2q-1.2-1-2.5-1.9q1.4 0.8 2.7 1.7q1.3 1 2.4 2q1.1 1.1 2 2.3c0.6 0.9 1.1 1.7 1.4 2.6q-0.7-1.3-1.6-2.4z" /><path class="s196" d="m49.3 123.4q-0.9-1.2-2-2.2q-1.1-1.1-2.3-2.1q-1.3-0.9-2.6-1.9q1.5 0.8 2.8 1.8q1.2 0.9 2.4 2q1.1 1.1 1.9 2.3c0.6 0.8 1.1 1.7 1.4 2.6q-0.7-1.3-1.6-2.5z" /><path class="s196" d="m47 124.3q-0.9-1.2-2.1-2.3q-1-1-2.3-2q-1.2-1-2.6-1.9q1.5 0.8 2.8 1.8q1.3 0.9 2.4 2q1.1 1.1 2 2.3c0.5 0.8 1 1.6 1.4 2.6q-0.7-1.3-1.6-2.5z" /><path class="s196" d="m44.6 125.1q-0.9-1.1-2-2.2q-1.1-1.1-2.3-2.1q-1.3-0.9-2.6-1.8q1.4 0.8 2.7 1.7q1.3 1 2.4 2q1.1 1.1 2 2.3c0.6 0.8 1.1 1.7 1.4 2.6q-0.7-1.3-1.6-2.5z" /><path class="s196" d="m42.2 126q-0.9-1.2-2-2.2q-1.1-1.1-2.3-2.1q-1.3-1-2.6-1.9q1.5 0.8 2.8 1.8q1.2 0.9 2.4 2q1.1 1.1 1.9 2.3c0.6 0.8 1.1 1.7 1.4 2.6q-0.6-1.3-1.6-2.5z" /><path class="s196" d="m39.9 126.9q-0.9-1.2-2.1-2.3q-1-1.1-2.3-2q-1.2-1-2.5-1.9q1.4 0.8 2.7 1.7q1.3 1 2.4 2.1q1.1 1 2 2.3c0.5 0.8 1 1.6 1.4 2.5q-0.7-1.3-1.6-2.4z" /><path class="s196" d="m37.5 127.7q-0.9-1.2-2-2.2q-1.1-1.1-2.3-2.1q-1.3-0.9-2.6-1.8q1.4 0.8 2.7 1.7q1.3 0.9 2.4 2q1.1 1.1 2 2.3c0.6 0.8 1.1 1.7 1.4 2.6q-0.7-1.3-1.6-2.5z" /><path class="s196" d="m35.1 128.6q-0.9-1.2-2-2.3q-1.1-1-2.3-2q-1.2-1-2.6-1.9q1.5 0.8 2.8 1.8q1.2 0.9 2.4 2q1.1 1.1 1.9 2.3c0.6 0.8 1.1 1.7 1.4 2.6q-0.6-1.3-1.6-2.5z" /><path class="s196" d="m32.8 129.4q-0.9-1.1-2-2.2q-1.1-1.1-2.4-2q-1.2-1-2.5-1.9q1.4 0.8 2.7 1.7q1.3 1 2.4 2q1.1 1.1 2 2.3c0.5 0.9 1 1.7 1.4 2.6q-0.7-1.3-1.6-2.5z" /><path class="s196" d="m30.4 130.3q-0.9-1.2-2-2.2q-1.1-1.1-2.3-2.1q-1.3-1-2.6-1.9q1.4 0.8 2.7 1.8q1.3 0.9 2.4 2q1.1 1.1 2 2.3c0.6 0.8 1.1 1.7 1.4 2.6q-0.7-1.3-1.6-2.5z" /></g></g><path class="s200" d="m42.3 121.2c0.5 1.3-2.9 3.7-7.6 5.4c-4.6 1.7-8.8 2-9.3 0.7c-0.5-1.3 2.9-3.7 7.6-5.4c4.7-1.7 8.9-2 9.3-0.7z" /></svg>